<svg width="24" height="31" viewBox="0 0 24 31" fill="none" xmlns="http://www.w3.org/2000/svg">
<path d="M11.5121 30.1671C11.5667 30.2395 11.6398 30.2988 11.7252 30.3397C11.8105 30.3806 11.9055 30.402 12.002 30.402C12.0984 30.402 12.1934 30.3806 12.2788 30.3397C12.3641 30.2988 12.4372 30.2395 12.4918 30.1671C12.5587 30.074 19.5738 20.6584 22.0761 16.8678C23.3065 15.0871 23.9723 13.0313 24 10.9275C23.9958 8.03053 22.7302 5.25327 20.4807 3.20478C18.2311 1.1563 15.1813 0.00379188 12 0C8.81868 0.00379188 5.76885 1.1563 3.51932 3.20478C1.26978 5.25327 0.00416404 8.03053 0 10.9275C0.0284223 13.03 0.69423 15.0845 1.92393 16.8642C4.43803 20.6548 11.4413 30.0704 11.5121 30.1671ZM12 1.07484C14.8683 1.07863 17.6179 2.11789 19.6461 3.96481C21.6742 5.81172 22.8155 8.31559 22.8197 10.9275C22.7899 12.832 22.1826 14.6918 21.0649 16.3017C18.9561 19.4832 13.6407 26.6918 12.0157 28.8952C10.379 26.6846 5.05967 19.4832 2.96656 16.3017C1.83781 14.6948 1.21957 12.8347 1.18033 10.9275C1.18449 8.31559 2.32575 5.81172 4.35393 3.96481C6.38211 2.11789 9.13172 1.07863 12 1.07484Z" fill="#797779"/>
<path d="M11.9998 16.0975C13.1282 16.0975 14.2312 15.7928 15.1693 15.222C16.1075 14.6511 16.8387 13.8398 17.2705 12.8905C17.7023 11.9412 17.8153 10.8967 17.5951 9.88895C17.375 8.8812 16.8317 7.95554 16.0338 7.22899C15.236 6.50245 14.2195 6.00767 13.1128 5.80722C12.0062 5.60677 10.8591 5.70965 9.81666 6.10285C8.77422 6.49605 7.88324 7.16191 7.25637 8.01623C6.62951 8.87056 6.29492 9.87497 6.29492 10.9024C6.297 12.2797 6.89872 13.6 7.96815 14.5738C9.03758 15.5477 10.4874 16.0956 11.9998 16.0975ZM11.9998 6.78224C12.8947 6.78224 13.7695 7.02388 14.5136 7.47662C15.2576 7.92935 15.8376 8.57284 16.18 9.32571C16.5225 10.0786 16.6121 10.907 16.4375 11.7063C16.2629 12.5055 15.832 13.2397 15.1992 13.8159C14.5664 14.3921 13.7602 14.7845 12.8825 14.9435C12.0049 15.1025 11.0951 15.0209 10.2684 14.709C9.44159 14.3972 8.73495 13.8691 8.23778 13.1915C7.74061 12.514 7.47525 11.7174 7.47525 10.9024C7.47629 9.80999 7.95332 8.76255 8.80162 7.99007C9.64992 7.21758 10.8002 6.78319 11.9998 6.78224Z" fill="#797779"/>
</svg>
