<svg width="86" height="86" viewBox="0 0 86 86" fill="none" xmlns="http://www.w3.org/2000/svg">
<g filter="url(#filter0_d_3_10)">
<circle cx="43" cy="39" r="39" fill="#E5B1F5"/>
</g>
<path d="M59.3033 27.8804L54.1177 22.7179C53.6528 22.2551 53.0349 22 52.3775 22C51.7201 22 51.1018 22.2551 50.6373 22.7179L25.1929 48.0492C25.0694 48.1721 25 48.3393 25 48.5134V56.2134C25 56.5756 25.2953 56.8696 25.6592 56.8696H33.3936C33.5685 56.8696 33.7359 56.8005 33.8598 56.6776L41.5942 48.9776L40.6621 48.0496L33.1198 55.5567H26.3175V48.7846L45.6974 29.4909L48.6325 32.4129L32.2233 48.7488L33.1554 49.6767L49.5645 33.3409L52.4997 36.2629L42.7702 45.9488L43.7022 46.8767L59.3028 31.3454C59.7678 30.8826 60.024 30.2674 60.024 29.6129C60.024 28.9584 59.7682 28.3429 59.3033 27.8804ZM58.3712 30.4175L53.4317 35.335L46.6294 28.5629L51.5689 23.6454C52.0145 23.2018 52.7396 23.2018 53.1852 23.6454L58.3708 28.8079C58.8168 29.252 58.8168 29.9739 58.3712 30.4175Z" fill="#C05AE1"/>
<defs>
<filter id="filter0_d_3_10" x="0" y="0" width="86" height="86" filterUnits="userSpaceOnUse" color-interpolation-filters="sRGB">
<feFlood flood-opacity="0" result="BackgroundImageFix"/>
<feColorMatrix in="SourceAlpha" type="matrix" values="0 0 0 0 0 0 0 0 0 0 0 0 0 0 0 0 0 0 127 0" result="hardAlpha"/>
<feOffset dy="4"/>
<feGaussianBlur stdDeviation="2"/>
<feComposite in2="hardAlpha" operator="out"/>
<feColorMatrix type="matrix" values="0 0 0 0 0 0 0 0 0 0 0 0 0 0 0 0 0 0 0.25 0"/>
<feBlend mode="normal" in2="BackgroundImageFix" result="effect1_dropShadow_3_10"/>
<feBlend mode="normal" in="SourceGraphic" in2="effect1_dropShadow_3_10" result="shape"/>
</filter>
</defs>
</svg>
