<svg width="299" height="285" viewBox="0 0 299 285" fill="none" xmlns="http://www.w3.org/2000/svg">
<g filter="url(#filter0_d_954_484)">
<path d="M215.999 69.4273C250.829 98.8393 291.464 125.349 294.474 154.567C297.269 183.786 262.869 215.713 227.824 239.901C192.994 264.282 157.519 281.116 128.494 275.311C99.4694 269.506 77.1094 241.062 58.1894 216.681C39.0544 192.3 23.7894 172.176 13.2544 142.57C2.93443 112.965 -2.22558 74.0713 16.6944 44.6593C35.6144 15.0538 78.8294 -5.07021 115.164 1.12179C151.499 7.31379 180.954 39.8218 215.999 69.4273Z" fill="#E5B1F5"/>
</g>
<path d="M82.9595 204V78H67.9595L71.9595 64H96.9595V204H82.9595Z" fill="#4A135B"/>
<g filter="url(#filter1_d_954_484)">
<path d="M172.565 128.66C170.01 128.66 167.479 127.994 165.239 126.747C164.355 126.25 163.483 125.693 162.66 125.1C162.478 124.967 162.284 124.822 162.09 124.676C161.521 124.24 160.964 123.78 160.431 123.296L160.419 123.284C160.359 123.223 160.286 123.163 160.226 123.102C160.201 123.078 160.177 123.066 160.165 123.041C158.324 121.334 156.75 119.36 155.479 117.181C153.142 113.184 151.894 108.631 151.894 103.993V96.4856C151.894 96.1465 152.04 95.8317 152.282 95.6016C152.524 95.3715 152.863 95.2504 153.19 95.2746C167.31 96.2676 174.091 90.6125 177.288 85.6961C177.53 85.3207 177.954 85.1149 178.39 85.1512C179.673 85.2481 180.945 85.3692 182.168 85.5145C183.197 85.6356 183.718 85.8293 184.263 86.0231C184.577 86.1321 184.904 86.2532 185.389 86.3743C187.254 86.8586 189.203 88.2149 190.753 90.1039C192.327 92.0293 193.224 94.2332 193.224 96.1465V103.969C193.224 111.78 189.772 119.106 183.754 124.071L183.609 124.192C183.585 124.216 183.548 124.24 183.524 124.264C183.391 124.373 183.245 124.482 183.076 124.628C182.701 124.918 182.301 125.209 181.889 125.488C181.235 125.936 180.557 126.359 179.891 126.723C177.651 127.994 175.12 128.66 172.565 128.66ZM161.885 121.322C161.945 121.382 162.006 121.431 162.066 121.491L162.078 121.504C162.563 121.939 163.059 122.363 163.58 122.751C163.749 122.884 163.919 123.005 164.088 123.126C164.839 123.671 165.626 124.18 166.426 124.628C168.302 125.681 170.422 126.226 172.565 126.226C174.708 126.226 176.84 125.669 178.704 124.628C179.31 124.289 179.915 123.913 180.509 123.502C180.872 123.247 181.235 122.981 181.586 122.714C181.756 122.593 181.877 122.484 181.998 122.388C182.01 122.375 182.022 122.363 182.047 122.351L182.228 122.206C187.677 117.701 190.814 111.065 190.814 103.969V96.1465C190.814 93.2887 187.726 89.4622 184.795 88.7114C184.202 88.5539 183.778 88.4086 183.451 88.2875C182.967 88.1059 182.64 87.9969 181.889 87.9C180.933 87.7789 179.927 87.6821 178.922 87.5973C177.009 90.3461 174.515 92.5864 171.511 94.2696C166.837 96.8731 161.073 98.0477 154.328 97.7571V103.981C154.328 108.183 155.454 112.325 157.574 115.945C158.736 117.931 160.177 119.736 161.86 121.286C161.86 121.31 161.872 121.322 161.885 121.322Z" fill="#4A135B"/>
<path d="M215.335 173.865H128.584C127.918 173.865 127.373 173.32 127.373 172.654V154.296C127.373 148.277 129.734 142.61 134.021 138.323C138.295 134.037 143.963 131.688 149.981 131.688H152.306C153.844 131.688 155.321 131.227 156.569 130.356C156.944 130.101 157.295 129.798 157.622 129.484C158.409 128.697 159.027 127.728 159.39 126.674C159.572 126.166 159.947 123.55 160.044 122.303C160.08 121.843 160.371 121.443 160.807 121.273C161.231 121.104 161.727 121.189 162.066 121.504C162.551 121.94 163.059 122.363 163.568 122.763C163.737 122.896 163.907 123.017 164.076 123.138C164.827 123.683 165.614 124.192 166.413 124.64C168.29 125.693 170.41 126.238 172.553 126.238C174.696 126.238 176.827 125.681 178.692 124.64C179.298 124.301 179.903 123.925 180.497 123.514C180.86 123.259 181.223 122.993 181.574 122.727C181.744 122.606 181.865 122.497 181.986 122.4C182.325 122.121 182.785 122.048 183.197 122.206C183.609 122.363 183.899 122.727 183.96 123.163C183.984 123.308 184.008 123.514 184.045 123.756C184.142 124.458 184.396 126.311 184.505 126.674C185.026 128.164 186.043 129.472 187.351 130.368C188.598 131.227 190.075 131.675 191.601 131.675H193.938C199.956 131.675 205.624 134.037 209.91 138.323C214.197 142.61 216.558 148.277 216.558 154.296V172.654C216.546 173.332 216.013 173.865 215.335 173.865ZM129.795 171.443H214.136V154.296C214.136 143.155 205.079 134.097 193.938 134.097H191.601C189.579 134.097 187.641 133.492 185.982 132.354C184.251 131.167 182.919 129.423 182.216 127.449C182.119 127.159 182.01 126.565 181.853 125.512C181.199 125.96 180.545 126.372 179.879 126.735C177.651 127.994 175.12 128.66 172.565 128.66C170.01 128.66 167.479 127.994 165.239 126.747C164.355 126.25 163.483 125.693 162.66 125.1C162.502 124.991 162.357 124.882 162.199 124.761C162.054 125.851 161.86 126.977 161.679 127.486C161.194 128.866 160.383 130.15 159.329 131.203C158.906 131.627 158.433 132.015 157.949 132.354C156.29 133.504 154.34 134.109 152.306 134.109H149.981C138.84 134.109 129.783 143.167 129.783 154.308V171.443H129.795Z" fill="#4A135B"/>
<path d="M156.326 97.8176C155.261 97.8176 154.159 97.7813 153.045 97.6965C152.827 97.6844 150.889 97.5875 148.794 97.1637L149.266 94.7902C151.252 95.1899 153.154 95.2746 153.166 95.2746C153.178 95.2746 153.19 95.2746 153.202 95.2746C167.322 96.2676 174.103 90.6125 177.3 85.6961L179.334 87.016C177.372 90.0434 174.732 92.4895 171.511 94.2817C167.297 96.6309 162.211 97.8176 156.326 97.8176Z" fill="#4A135B"/>
<path d="M183.366 125.851C182.858 125.851 182.398 125.524 182.228 125.039C182.034 124.482 181.889 123.925 181.792 123.356L184.178 122.969C184.202 123.114 184.226 123.247 184.263 123.393C188.9 123.211 194.422 122.702 198.152 120.789C201.785 118.924 203.48 115.897 203.48 111.271C203.48 105.786 199.775 90.9637 195.197 83.0805C193.441 80.041 190.789 77.6434 187.532 76.1539C177.154 71.3828 167.503 71.3828 157.125 76.1539L156.786 76.3114C153.674 77.7403 151.083 80.041 149.303 82.9473C144.616 90.6004 141.226 105.18 141.226 111.271C141.226 116.006 142.788 119.045 146.154 120.862C149.63 122.727 154.873 123.223 159.717 123.405C159.753 123.175 159.777 122.932 159.79 122.69C158.118 121.068 156.665 119.215 155.479 117.193L157.573 115.97C158.736 117.955 160.177 119.76 161.86 121.31C162.127 121.552 162.26 121.903 162.248 122.254C162.199 123.247 162.127 124.143 161.812 125.052C161.642 125.548 161.158 125.875 160.637 125.863C155.248 125.705 149.17 125.233 145.016 123.005C140.838 120.753 138.804 116.926 138.804 111.283C138.804 107.953 139.724 102.492 141.19 97.0184C142.873 90.7699 145.016 85.3328 147.244 81.7C149.279 78.3821 152.233 75.7543 155.781 74.1317L156.12 73.9742C167.176 68.8883 177.481 68.8883 188.549 73.9742C192.255 75.6817 195.282 78.4184 197.292 81.8938C201.845 89.7528 205.902 104.889 205.902 111.295C205.902 116.854 203.722 120.68 199.254 122.969C195.766 124.761 191.032 125.621 183.403 125.875C183.391 125.851 183.379 125.851 183.366 125.851Z" fill="#4A135B"/>
<path d="M172.068 119.699C171.088 119.699 170.204 119.542 169.465 119.324C167.164 118.67 165.663 117.362 165.602 117.314L167.188 115.485C167.382 115.643 171.875 119.433 176.755 115.461L178.281 117.338C176.065 119.142 173.909 119.699 172.068 119.699Z" fill="#4A135B"/>
<path d="M201.884 135.141L199.504 134.691L196.194 152.206L198.574 152.655L201.884 135.141Z" fill="#4A135B"/>
<path d="M196.59 165.049C196.263 165.049 195.936 165.025 195.609 164.976C193.769 164.722 192.146 163.765 191.032 162.276C189.918 160.786 189.445 158.97 189.7 157.129C190.233 153.339 193.744 150.687 197.535 151.22C199.375 151.474 200.998 152.431 202.112 153.92C203.226 155.41 203.698 157.226 203.444 159.067C203.19 160.907 202.233 162.53 200.744 163.644C199.545 164.564 198.092 165.049 196.59 165.049ZM196.578 153.593C194.362 153.593 192.424 155.228 192.11 157.481C191.94 158.679 192.255 159.866 192.981 160.835C193.708 161.804 194.762 162.421 195.96 162.591C197.159 162.76 198.346 162.445 199.315 161.719C200.283 160.992 200.901 159.939 201.07 158.74C201.24 157.541 200.925 156.354 200.199 155.386C199.472 154.417 198.419 153.799 197.22 153.63C196.99 153.606 196.784 153.593 196.578 153.593Z" fill="#4A135B"/>
<path d="M196.578 160.314C196.469 160.314 196.372 160.302 196.263 160.29C195.682 160.205 195.161 159.902 194.81 159.43C194.459 158.958 194.301 158.377 194.386 157.795C194.556 156.584 195.67 155.749 196.881 155.918C198.092 156.088 198.927 157.202 198.758 158.413C198.673 158.994 198.37 159.515 197.898 159.866C197.522 160.169 197.062 160.314 196.578 160.314ZM196.36 158.074C196.348 158.195 196.42 158.304 196.542 158.316C196.663 158.328 196.772 158.256 196.784 158.134C196.796 158.013 196.723 157.904 196.602 157.892C196.542 157.88 196.493 157.904 196.445 157.929C196.408 157.977 196.372 158.025 196.36 158.074Z" fill="#4A135B"/>
<path d="M139.095 166.817C137.702 166.817 136.479 165.788 136.285 164.371L135.135 156.197C134.287 150.13 138.526 144.511 144.58 143.664C150.647 142.816 156.266 147.054 157.114 153.109L158.264 161.283C158.373 162.034 158.179 162.784 157.719 163.39C157.259 163.995 156.593 164.395 155.842 164.492L152.56 164.952L152.221 162.554L155.503 162.094C155.733 162.058 155.89 161.852 155.866 161.622L154.716 153.448C154.05 148.713 149.654 145.395 144.907 146.061C140.173 146.727 136.855 151.123 137.521 155.87L138.671 164.044C138.707 164.274 138.913 164.431 139.143 164.407L142.425 163.947L142.764 166.345L139.482 166.805C139.361 166.817 139.228 166.817 139.095 166.817Z" fill="#4A135B"/>
<path d="M145.94 144.683L144.539 134.718L142.141 135.055L143.541 145.02L145.94 144.683Z" fill="#4A135B"/>
<path d="M153.925 166.474L153.116 160.718L150.717 161.055L151.526 166.811L153.925 166.474Z" fill="#4A135B"/>
<path d="M144.2 167.839L143.391 162.083L140.993 162.42L141.802 168.176L144.2 167.839Z" fill="#4A135B"/>
<path d="M179.431 172.654H177.009V153.811C177.009 150.13 178.438 146.667 181.041 144.063L193.078 132.027L194.786 133.734L182.749 145.771C180.606 147.914 179.419 150.772 179.419 153.799V172.654H179.431Z" fill="#4A135B"/>
<path d="M166.934 172.654H164.512V153.811C164.512 150.772 163.326 147.926 161.182 145.783L149.146 133.746L150.853 132.039L162.89 144.075C165.493 146.679 166.922 150.142 166.922 153.823V172.654H166.934Z" fill="#4A135B"/>
<path d="M171.972 139.813C165.82 139.813 160.117 137.004 156.302 132.099C156.096 131.833 156.011 131.506 156.06 131.167C156.108 130.84 156.29 130.549 156.569 130.356C156.944 130.101 157.295 129.798 157.622 129.484C158.409 128.697 159.027 127.728 159.39 126.674C159.572 126.166 159.947 123.55 160.044 122.303C160.08 121.843 160.371 121.443 160.807 121.273C161.231 121.104 161.727 121.189 162.066 121.504C162.551 121.94 163.059 122.363 163.568 122.763C163.737 122.896 163.907 123.017 164.076 123.138C164.827 123.683 165.614 124.192 166.413 124.64C168.29 125.693 170.41 126.238 172.553 126.238C174.696 126.238 176.827 125.681 178.692 124.64C179.298 124.301 179.903 123.925 180.497 123.514C180.86 123.259 181.223 122.993 181.574 122.727C181.744 122.606 181.865 122.497 181.986 122.4C182.325 122.121 182.785 122.048 183.197 122.206C183.609 122.363 183.899 122.727 183.96 123.163C183.984 123.308 184.008 123.514 184.045 123.756C184.142 124.458 184.396 126.311 184.505 126.674C185.026 128.164 186.043 129.472 187.351 130.368C187.629 130.561 187.811 130.852 187.859 131.179C187.908 131.506 187.823 131.845 187.617 132.111C183.815 137.004 178.111 139.813 171.972 139.813ZM158.978 131.53C162.296 135.272 166.97 137.391 171.972 137.391C176.961 137.391 181.623 135.272 184.941 131.542C183.718 130.428 182.761 129.011 182.216 127.461C182.119 127.171 182.01 126.577 181.853 125.524C181.199 125.972 180.545 126.384 179.879 126.747C177.651 127.994 175.12 128.66 172.565 128.66C170.01 128.66 167.479 127.994 165.239 126.747C164.355 126.25 163.483 125.693 162.66 125.1C162.502 124.991 162.357 124.882 162.199 124.761C162.054 125.851 161.86 126.977 161.679 127.486C161.194 128.866 160.383 130.15 159.329 131.203C159.22 131.312 159.099 131.421 158.978 131.53Z" fill="#4A135B"/>
<path d="M166.728 109.721H162.551C160.08 109.721 158.07 107.711 158.07 105.241V101.123C158.07 100.457 158.615 99.9125 159.281 99.9125H169.998C170.664 99.9125 171.209 100.457 171.209 101.123V105.241C171.209 107.711 169.199 109.721 166.728 109.721ZM160.492 102.334V105.241C160.492 106.379 161.412 107.299 162.551 107.299H166.728C167.867 107.299 168.787 106.379 168.787 105.241V102.334H160.492Z" fill="#4A135B"/>
<path d="M182.325 109.721H178.147C175.677 109.721 173.667 107.711 173.667 105.241V101.123C173.667 100.457 174.212 99.9125 174.878 99.9125H185.595C186.261 99.9125 186.806 100.457 186.806 101.123V105.241C186.806 107.711 184.796 109.721 182.325 109.721ZM176.089 102.334V105.241C176.089 106.379 177.009 107.299 178.147 107.299H182.325C183.463 107.299 184.384 106.379 184.384 105.241V102.334H176.089Z" fill="#4A135B"/>
<path d="M174.878 102.092H169.998V104.514H174.878V102.092Z" fill="#4A135B"/>
<path d="M192.013 102.092H185.595V104.514H192.013V102.092Z" fill="#4A135B"/>
<path d="M159.281 102.092H153.105V104.514H159.281V102.092Z" fill="#4A135B"/>
</g>
<defs>
<filter id="filter0_d_954_484" x="0" y="0" width="298.634" height="284.462" filterUnits="userSpaceOnUse" color-interpolation-filters="sRGB">
<feFlood flood-opacity="0" result="BackgroundImageFix"/>
<feColorMatrix in="SourceAlpha" type="matrix" values="0 0 0 0 0 0 0 0 0 0 0 0 0 0 0 0 0 0 127 0" result="hardAlpha"/>
<feOffset dy="4"/>
<feGaussianBlur stdDeviation="2"/>
<feComposite in2="hardAlpha" operator="out"/>
<feColorMatrix type="matrix" values="0 0 0 0 0 0 0 0 0 0 0 0 0 0 0 0 0 0 0.25 0"/>
<feBlend mode="normal" in2="BackgroundImageFix" result="effect1_dropShadow_954_484"/>
<feBlend mode="normal" in="SourceGraphic" in2="effect1_dropShadow_954_484" result="shape"/>
</filter>
<filter id="filter1_d_954_484" x="105.959" y="60" width="132" height="163" filterUnits="userSpaceOnUse" color-interpolation-filters="sRGB">
<feFlood flood-opacity="0" result="BackgroundImageFix"/>
<feColorMatrix in="SourceAlpha" type="matrix" values="0 0 0 0 0 0 0 0 0 0 0 0 0 0 0 0 0 0 127 0" result="hardAlpha"/>
<feOffset dy="4"/>
<feGaussianBlur stdDeviation="2"/>
<feComposite in2="hardAlpha" operator="out"/>
<feColorMatrix type="matrix" values="0 0 0 0 0 0 0 0 0 0 0 0 0 0 0 0 0 0 0.25 0"/>
<feBlend mode="normal" in2="BackgroundImageFix" result="effect1_dropShadow_954_484"/>
<feBlend mode="normal" in="SourceGraphic" in2="effect1_dropShadow_954_484" result="shape"/>
</filter>
</defs>
</svg>
