<svg width="336" height="297" viewBox="0 0 336 297" fill="none" xmlns="http://www.w3.org/2000/svg">
<g filter="url(#filter0_d_954_489)">
<path d="M80.6987 52.4926C47.269 77.3865 9.66064 99.8116 4.64619 128.203C-0.577197 156.389 26.7933 190.335 53.3281 214.406C80.0719 238.271 105.98 252.261 134.604 265.428C163.228 278.389 194.568 290.322 230.505 288.882C266.442 287.236 306.976 272.217 323.273 243.62C339.361 215.023 330.794 173.053 317.005 138.49C303.006 103.926 283.575 76.7693 258.503 50.4353C233.43 24.307 202.717 -0.998343 173.048 0.0303297C143.17 0.853268 114.128 27.8045 80.6987 52.4926Z" fill="#E5B1F5"/>
</g>
<path d="M121.1 224.6C112.567 224.6 105.067 222.733 98.6 219C92.1333 215.2 87.0667 210.133 83.4 203.8C79.8 197.467 78 190.467 78 182.8H92C92 187.867 93.1667 192.533 95.5 196.8C97.9 201 101.267 204.367 105.6 206.9C109.933 209.367 115.1 210.6 121.1 210.6C126.167 210.6 130.9 209.367 135.3 206.9C139.767 204.367 143.367 201 146.1 196.8C148.9 192.533 150.3 187.867 150.3 182.8C150.3 176.467 148.7 171.2 145.5 167C142.3 162.733 137.9 159.567 132.3 157.5C126.7 155.367 120.3 154.3 113.1 154.3V142.7C123.033 142.7 131 140.6 137 136.4C143.067 132.133 146.1 125.9 146.1 117.7C146.1 113.233 144.867 109.167 142.4 105.5C140 101.833 136.833 98.9 132.9 96.7C129.033 94.4333 124.867 93.3 120.4 93.3C115.933 93.3 111.633 94.4333 107.5 96.7C103.433 98.9 100.1 101.833 97.5 105.5C94.9667 109.167 93.7 113.233 93.7 117.7H79.7C79.7 112.433 80.8 107.5 83 102.9C85.2 98.2333 88.2 94.1333 92 90.6C95.8 87.0667 100.133 84.3 105 82.3C109.867 80.3 114.967 79.3 120.3 79.3C127.3 79.3 133.8 81.0333 139.8 84.5C145.867 87.9667 150.767 92.6 154.5 98.4C158.233 104.2 160.1 110.633 160.1 117.7C160.1 124.567 158.333 130.767 154.8 136.3C151.267 141.833 146.5 145.733 140.5 148C145.7 149.733 150.067 152.367 153.6 155.9C157.133 159.367 159.8 163.4 161.6 168C163.4 172.6 164.3 177.533 164.3 182.8C164.3 190.467 162.3 197.467 158.3 203.8C154.3 210.133 149 215.2 142.4 219C135.867 222.733 128.767 224.6 121.1 224.6Z" fill="#601877"/>
<g filter="url(#filter1_d_954_489)">
<path d="M231.045 155.981C230.756 155.981 230.478 155.869 230.255 155.657L216.383 141.714C212.71 138.027 212.71 132.017 216.383 128.319C218.154 126.543 220.525 125.56 223.052 125.56C225.579 125.56 227.95 126.543 229.721 128.319L231.045 129.649L232.37 128.319C236.044 124.632 242.033 124.632 245.718 128.319C249.392 132.006 249.392 138.016 245.718 141.714L231.836 155.645C231.624 155.869 231.335 155.981 231.045 155.981ZM223.052 127.794C221.115 127.794 219.311 128.542 217.953 129.905C215.148 132.721 215.148 137.312 217.953 140.139L231.045 153.277L244.138 140.139C246.943 137.324 246.943 132.732 244.138 129.905C241.332 127.09 236.756 127.09 233.94 129.905L231.825 132.028C231.613 132.24 231.335 132.352 231.034 132.352C230.734 132.352 230.455 132.229 230.244 132.028L228.129 129.905C226.793 128.542 224.978 127.794 223.052 127.794Z" fill="#4A135B"/>
<path d="M264.199 190.625H197.903C196.567 190.625 195.476 189.53 195.476 188.189V108.813C195.476 107.472 196.567 106.378 197.903 106.378H212.587C213.199 106.378 213.7 106.88 213.7 107.495V115.427H248.401V107.495C248.401 106.88 248.902 106.378 249.515 106.378H264.199C265.535 106.378 266.626 107.472 266.626 108.813V188.2C266.626 189.541 265.535 190.625 264.199 190.625ZM197.903 108.623C197.792 108.623 197.703 108.712 197.703 108.824V188.211C197.703 188.323 197.792 188.413 197.903 188.413H264.199C264.31 188.413 264.399 188.323 264.399 188.211V108.813C264.399 108.701 264.31 108.612 264.199 108.612H250.628V116.544C250.628 117.158 250.127 117.661 249.515 117.661H212.587C211.975 117.661 211.474 117.158 211.474 116.544V108.612H197.903V108.623Z" fill="#4A135B"/>
<path d="M258.833 183.921H211.541C211.24 183.921 210.962 183.799 210.75 183.597L202.478 175.297C202.267 175.085 202.156 174.805 202.156 174.504V114.198C202.156 113.583 202.657 113.081 203.269 113.081H212.587C213.199 113.081 213.7 113.583 213.7 114.198V115.427H248.401V114.198C248.401 113.583 248.902 113.081 249.515 113.081H258.833C259.445 113.081 259.946 113.583 259.946 114.198V182.804C259.946 183.43 259.445 183.921 258.833 183.921ZM211.997 181.687H257.708V115.326H250.617V116.555C250.617 117.17 250.116 117.672 249.503 117.672H212.587C211.975 117.672 211.474 117.17 211.474 116.555V115.326H204.382V174.046L211.997 181.687Z" fill="#4A135B"/>
<path d="M249.515 117.672H212.587C211.975 117.672 211.474 117.17 211.474 116.555V107.327C211.474 105.082 213.288 103.261 215.526 103.261H223.108C223.364 99.0934 226.837 95.7754 231.056 95.7754C235.276 95.7754 238.738 99.0934 239.005 103.261H246.587C248.824 103.261 250.639 105.082 250.639 107.327V116.555C250.628 117.17 250.127 117.672 249.515 117.672ZM213.7 115.438H248.401V107.327C248.401 106.322 247.577 105.495 246.576 105.495H237.87C237.558 105.495 237.257 105.361 237.046 105.126C236.834 104.892 236.734 104.579 236.756 104.266C236.768 104.098 236.779 103.931 236.779 103.752C236.779 100.579 234.207 97.9986 231.045 97.9986C227.884 97.9986 225.312 100.579 225.312 103.752C225.312 103.931 225.323 104.098 225.334 104.266C225.368 104.579 225.256 104.892 225.045 105.126C224.833 105.361 224.533 105.495 224.221 105.495H215.515C214.513 105.495 213.689 106.322 213.689 107.327V115.438H213.7Z" fill="#4A135B"/>
<path d="M249.882 163.443H212.231V165.678H249.882V163.443Z" fill="#4A135B"/>
<path d="M241.276 170.471H220.837V172.705H241.276V170.471Z" fill="#4A135B"/>
<path d="M211.541 183.921C211.251 183.921 210.962 183.81 210.75 183.598L202.479 175.297C202.156 174.973 202.067 174.492 202.234 174.079C202.401 173.666 202.812 173.386 203.258 173.386H211.529C212.142 173.386 212.643 173.889 212.643 174.504V182.804C212.643 183.251 212.376 183.665 211.953 183.832C211.83 183.899 211.685 183.921 211.541 183.921ZM205.963 175.632L210.427 180.112V175.632H205.963Z" fill="#4A135B"/>
<path d="M231.045 105.763C229.943 105.763 229.041 104.858 229.041 103.752C229.041 102.646 229.943 101.741 231.045 101.741C232.147 101.741 233.049 102.646 233.049 103.752C233.049 104.858 232.159 105.763 231.045 105.763ZM231.045 103.529C230.923 103.529 230.823 103.629 230.823 103.752C230.823 103.875 230.923 103.976 231.045 103.976C231.168 103.976 231.268 103.875 231.268 103.752C231.279 103.629 231.179 103.529 231.045 103.529Z" fill="#4A135B"/>
<path d="M230.166 145.088C230.155 145.088 230.144 145.088 230.132 145.088C229.687 145.077 229.297 144.798 229.13 144.373L226.603 137.849L224.321 142.507C224.132 142.887 223.742 143.133 223.319 143.133H218.243V140.899H222.629L225.724 134.586C225.913 134.184 226.325 133.939 226.77 133.961C227.216 133.983 227.605 134.262 227.761 134.676L230.266 141.122L231.88 137.648C232.058 137.257 232.459 137 232.882 137C233.316 137 233.706 137.245 233.895 137.648L235.42 140.899H238.916V143.133H234.708C234.274 143.133 233.884 142.887 233.695 142.485L232.882 140.753L231.179 144.429C231.001 144.842 230.6 145.088 230.166 145.088Z" fill="#4A135B"/>
<path d="M278.505 181.687C278.215 181.687 277.937 181.575 277.714 181.363L273.261 176.894C273.049 176.682 272.938 176.403 272.938 176.101V108.735C272.938 107.439 273.985 106.389 275.276 106.389H281.733C283.024 106.389 284.071 107.439 284.071 108.735V176.101C284.071 176.403 283.948 176.682 283.748 176.894L279.295 181.363C279.072 181.575 278.783 181.687 278.505 181.687ZM275.165 175.632L278.505 178.984L281.844 175.632V108.735C281.844 108.668 281.8 108.623 281.733 108.623H275.276C275.209 108.623 275.165 108.668 275.165 108.735V175.632Z" fill="#4A135B"/>
<path d="M282.958 131.637H274.051V133.871H282.958V131.637Z" fill="#4A135B"/>
<path d="M288.524 131.861H286.297V112.421C286.297 112.299 286.197 112.198 286.075 112.198H282.958V109.964H286.075C287.422 109.964 288.524 111.07 288.524 112.421V131.861Z" fill="#4A135B"/>
<path d="M282.958 137.223H274.051V139.457H282.958V137.223Z" fill="#4A135B"/>
</g>
<defs>
<filter id="filter0_d_954_489" x="0" y="0" width="336" height="297" filterUnits="userSpaceOnUse" color-interpolation-filters="sRGB">
<feFlood flood-opacity="0" result="BackgroundImageFix"/>
<feColorMatrix in="SourceAlpha" type="matrix" values="0 0 0 0 0 0 0 0 0 0 0 0 0 0 0 0 0 0 127 0" result="hardAlpha"/>
<feOffset dy="4"/>
<feGaussianBlur stdDeviation="2"/>
<feComposite in2="hardAlpha" operator="out"/>
<feColorMatrix type="matrix" values="0 0 0 0 0 0 0 0 0 0 0 0 0 0 0 0 0 0 0.25 0"/>
<feBlend mode="normal" in2="BackgroundImageFix" result="effect1_dropShadow_954_489"/>
<feBlend mode="normal" in="SourceGraphic" in2="effect1_dropShadow_954_489" result="shape"/>
</filter>
<filter id="filter1_d_954_489" x="181" y="86" width="122" height="151" filterUnits="userSpaceOnUse" color-interpolation-filters="sRGB">
<feFlood flood-opacity="0" result="BackgroundImageFix"/>
<feColorMatrix in="SourceAlpha" type="matrix" values="0 0 0 0 0 0 0 0 0 0 0 0 0 0 0 0 0 0 127 0" result="hardAlpha"/>
<feOffset dy="4"/>
<feGaussianBlur stdDeviation="2"/>
<feComposite in2="hardAlpha" operator="out"/>
<feColorMatrix type="matrix" values="0 0 0 0 0 0 0 0 0 0 0 0 0 0 0 0 0 0 0.25 0"/>
<feBlend mode="normal" in2="BackgroundImageFix" result="effect1_dropShadow_954_489"/>
<feBlend mode="normal" in="SourceGraphic" in2="effect1_dropShadow_954_489" result="shape"/>
</filter>
</defs>
</svg>
