<svg width="290" height="294" viewBox="0 0 290 294" fill="none" xmlns="http://www.w3.org/2000/svg">
<path d="M224.763 18.1485C259.825 36.4755 291.275 77.376 289.362 116.712C287.662 155.825 252.812 193.149 217.75 227.121C182.475 261.317 146.988 292.16 110.438 293.277C73.675 294.395 35.85 266.01 18.85 232.038C1.6375 198.066 5.25 158.283 3.3375 116.712C1.6375 74.9175 -5.375 31.5585 11.625 13.2315C28.8375 -4.87198 70.0625 2.05652 110.225 3.17402C150.6 4.51502 189.488 0.0450096 224.763 18.1485Z" fill="#E5B1F5"/>
<path d="M37 207V194.6C42.4667 189.533 48.4667 184 55 178C61.5333 171.933 68 165.7 74.4 159.3C80.8667 152.833 86.7667 146.467 92.1 140.2C97.4333 133.867 101.7 127.9 104.9 122.3C108.167 116.633 109.8 111.633 109.8 107.3C109.8 102.033 108.5 97.2333 105.9 92.9C103.367 88.5 99.9333 85 95.6 82.4C91.3333 79.7333 86.5667 78.4 81.3 78.4C76.0333 78.4 71.2 79.7333 66.8 82.4C62.4667 85 59 88.5 56.4 92.9C53.8 97.2333 52.5 102.033 52.5 107.3H38.5C38.5 99.3 40.4333 92.0667 44.3 85.6C48.2333 79.1333 53.4333 74 59.9 70.2C66.3667 66.3333 73.5 64.4 81.3 64.4C89.1 64.4 96.2 66.3333 102.6 70.2C109.067 74.0667 114.2 79.2333 118 85.7C121.867 92.1667 123.8 99.3667 123.8 107.3C123.8 112.033 122.533 117.233 120 122.9C117.533 128.5 114.167 134.333 109.9 140.4C105.633 146.4 100.833 152.467 95.5 158.6C90.1667 164.733 84.6 170.733 78.8 176.6C73 182.4 67.3667 187.867 61.9 193H125.9V207H37Z" fill="#601877"/>
<path d="M231.29 107.772C231.106 107.772 230.922 107.772 230.738 107.761C230.217 107.729 229.697 107.664 229.188 107.546C227.377 107.147 225.73 106.252 224.418 104.937C222.651 103.179 221.643 100.84 221.578 98.36C221.502 95.6755 222.51 93.1527 224.418 91.2659C225.73 89.9614 227.377 89.0558 229.188 88.6569C229.697 88.5491 230.217 88.4736 230.738 88.4412C233.502 88.2903 236.212 89.3145 238.163 91.2552C239.995 93.0772 241.014 95.5137 241.014 98.0905C241.014 100.667 240.006 103.104 238.163 104.926C236.342 106.748 233.86 107.772 231.29 107.772ZM231.29 90.5867C231.15 90.5867 231.009 90.5867 230.868 90.5975C230.467 90.6191 230.066 90.673 229.664 90.7592C228.266 91.0719 226.976 91.7619 225.957 92.7861C224.472 94.2631 223.692 96.2145 223.746 98.3061C223.8 100.236 224.581 102.047 225.957 103.416C226.976 104.43 228.255 105.131 229.664 105.443C230.066 105.53 230.467 105.583 230.868 105.605C233.014 105.724 235.117 104.926 236.645 103.416C238.076 101.993 238.857 100.107 238.857 98.1012C238.857 96.0959 238.076 94.2092 236.645 92.7861C235.214 91.3737 233.296 90.5867 231.29 90.5867Z" fill="#4A135B"/>
<path d="M196.56 155.856H184.712C184.408 155.856 184.126 155.727 183.92 155.511C182.706 154.218 180.994 153.474 179.205 153.474H162.837C161.113 153.474 159.498 154.142 158.284 155.35C158.23 155.404 158.176 155.457 158.121 155.511C157.915 155.738 157.623 155.856 157.319 155.856H150.74C149.211 155.856 147.975 154.627 147.975 153.107V84.7109C147.975 83.1907 149.211 81.9617 150.74 81.9617H163.39C163.986 81.9617 164.474 82.4468 164.474 83.0398V87.1475H168.896V83.0398C168.896 82.4468 169.384 81.9617 169.98 81.9617H209.882C210.478 81.9617 210.966 82.4468 210.966 83.0398V87.1475H215.388V83.0398C215.388 82.4468 215.876 81.9617 216.472 81.9617H229.122C230.651 81.9617 231.887 83.1907 231.887 84.7109V89.5193C231.887 90.0907 231.442 90.5651 230.868 90.5975C230.467 90.619 230.065 90.6729 229.664 90.7592C228.266 91.0718 226.976 91.7618 225.957 92.786C224.472 94.2631 223.692 96.2145 223.746 98.306C223.8 100.236 224.581 102.047 225.957 103.416C226.976 104.43 228.255 105.131 229.664 105.443C230.065 105.529 230.467 105.583 230.868 105.605C231.442 105.637 231.887 106.112 231.887 106.683V127.922C231.887 128.332 231.659 128.698 231.29 128.882C230.922 129.065 230.488 129.022 230.152 128.785C226.423 126.025 221.99 124.569 217.34 124.569C212.397 124.569 207.573 126.273 203.757 129.378C203.302 129.744 202.868 130.122 202.467 130.52C201.513 131.426 200.635 132.429 199.866 133.507C197.232 137.151 195.844 141.463 195.844 145.97C195.844 148.881 196.419 151.706 197.557 154.358C197.698 154.692 197.665 155.069 197.459 155.371C197.264 155.673 196.917 155.856 196.56 155.856ZM185.167 153.7H194.977C194.11 151.22 193.665 148.622 193.665 145.959C193.665 141 195.194 136.256 198.099 132.245C198.955 131.07 199.909 129.96 200.961 128.957C201.405 128.526 201.893 128.105 202.391 127.707C206.597 124.3 211.909 122.413 217.35 122.413C221.773 122.413 226.011 123.61 229.729 125.884V107.643C229.556 107.61 229.383 107.578 229.209 107.546C227.399 107.147 225.751 106.252 224.44 104.937C222.673 103.179 221.665 100.84 221.6 98.36C221.524 95.6754 222.532 93.1526 224.44 91.2659C225.751 89.9614 227.399 89.0557 229.209 88.6568C229.383 88.6137 229.556 88.5814 229.74 88.5598V84.7109C229.74 84.3875 229.469 84.1179 229.144 84.1179H217.556V87.665C217.556 88.5706 216.819 89.3037 215.909 89.3037H210.456C209.546 89.3037 208.809 88.5706 208.809 87.665V84.1179H171.075V88.2256C171.075 88.8185 170.587 89.3037 169.991 89.3037H163.4C162.804 89.3037 162.316 88.8185 162.316 88.2256V84.1179H150.75C150.425 84.1179 150.154 84.3875 150.154 84.7109V153.096C150.154 153.42 150.425 153.689 150.75 153.689H156.875C158.49 152.148 160.593 151.307 162.837 151.307H179.205C181.427 151.307 183.573 152.169 185.167 153.7Z" fill="#4A135B"/>
<path d="M166.913 115.729H160.647C159.596 115.729 158.75 114.877 158.75 113.842V110.683C158.75 109.637 159.607 108.796 160.647 108.796H166.913C167.964 108.796 168.81 109.648 168.81 110.683V113.842C168.81 114.888 167.964 115.729 166.913 115.729ZM160.907 113.572H166.642V110.942H160.907V113.572Z" fill="#4A135B"/>
<path d="M184.04 115.729H177.774C176.723 115.729 175.877 114.877 175.877 113.842V110.683C175.877 109.637 176.734 108.796 177.774 108.796H184.04C185.091 108.796 185.937 109.648 185.937 110.683V113.842C185.947 114.888 185.091 115.729 184.04 115.729ZM178.045 113.572H183.779V110.942H178.045V113.572Z" fill="#4A135B"/>
<path d="M201.177 115.729H194.912C193.86 115.729 193.015 114.877 193.015 113.842V110.683C193.015 109.637 193.871 108.796 194.912 108.796H201.177C202.229 108.796 203.074 109.648 203.074 110.683V113.842C203.074 114.888 202.218 115.729 201.177 115.729ZM195.172 113.572H200.906V110.942H195.172V113.572Z" fill="#4A135B"/>
<path d="M166.913 129.733H160.647C159.596 129.733 158.75 128.882 158.75 127.847V124.688C158.75 123.642 159.607 122.801 160.647 122.801H166.913C167.964 122.801 168.81 123.653 168.81 124.688V127.847C168.81 128.893 167.964 129.733 166.913 129.733ZM160.907 127.577H166.642V124.947H160.907V127.577Z" fill="#4A135B"/>
<path d="M184.04 129.733H177.774C176.723 129.733 175.877 128.882 175.877 127.847V124.688C175.877 123.642 176.734 122.801 177.774 122.801H184.04C185.091 122.801 185.937 123.653 185.937 124.688V127.847C185.947 128.893 185.091 129.733 184.04 129.733ZM178.045 127.577H183.779V124.947H178.045V127.577Z" fill="#4A135B"/>
<path d="M200.625 129.733H194.901C193.85 129.733 193.004 128.882 193.004 127.847V124.688C193.004 123.642 193.86 122.801 194.901 122.801H201.167C202.218 122.801 203.064 123.653 203.064 124.688V127.459C203.064 127.782 202.912 128.095 202.662 128.3C202.218 128.655 201.784 129.043 201.373 129.442C201.177 129.626 200.906 129.733 200.625 129.733ZM195.172 127.577H200.202C200.429 127.362 200.668 127.157 200.906 126.952V124.947H195.172V127.577Z" fill="#4A135B"/>
<path d="M166.913 143.738H160.647C159.596 143.738 158.75 142.887 158.75 141.852V138.693C158.75 137.647 159.607 136.806 160.647 136.806H166.913C167.964 136.806 168.81 137.658 168.81 138.693V141.852C168.81 142.887 167.964 143.738 166.913 143.738ZM160.907 141.582H166.642V138.951H160.907V141.582Z" fill="#4A135B"/>
<path d="M184.04 143.738H177.774C176.723 143.738 175.877 142.887 175.877 141.852V138.693C175.877 137.647 176.734 136.806 177.774 136.806H184.04C185.091 136.806 185.937 137.658 185.937 138.693V141.852C185.947 142.887 185.091 143.738 184.04 143.738ZM178.045 141.582H183.779V138.951H178.045V141.582Z" fill="#4A135B"/>
<path d="M218.304 115.621H212.039C210.987 115.621 210.142 114.769 210.142 113.734V110.575C210.142 109.529 210.998 108.688 212.039 108.688H218.304C219.356 108.688 220.201 109.54 220.201 110.575V113.734C220.201 114.769 219.345 115.621 218.304 115.621ZM212.299 113.465H218.033V110.834H212.299V113.465Z" fill="#4A135B"/>
<path d="M169.991 89.3037H163.4C162.804 89.3037 162.316 88.8186 162.316 88.2256V77.9727C162.316 77.3797 162.804 76.8945 163.4 76.8945H169.991C170.587 76.8945 171.075 77.3797 171.075 77.9727V88.2256C171.075 88.8294 170.587 89.3037 169.991 89.3037ZM164.484 87.1475H168.907V79.04H164.484V87.1475Z" fill="#4A135B"/>
<path d="M216.472 89.3037H209.882C209.285 89.3037 208.798 88.8186 208.798 88.2256V77.9727C208.798 77.3797 209.285 76.8945 209.882 76.8945H216.472C217.068 76.8945 217.556 77.3797 217.556 77.9727V88.2256C217.556 88.8294 217.068 89.3037 216.472 89.3037ZM210.966 87.1475H215.388V79.04H210.966V87.1475Z" fill="#4A135B"/>
<path d="M217.34 169.505C215.356 169.505 213.383 169.258 211.475 168.772C204.386 166.972 198.435 161.894 195.562 155.188C194.305 152.266 193.665 149.151 193.665 145.948C193.665 140.989 195.194 136.245 198.099 132.235C198.955 131.06 199.909 129.949 200.96 128.946C201.405 128.515 201.893 128.095 202.391 127.696C206.597 124.289 211.909 122.402 217.35 122.402C222.478 122.402 227.356 124.009 231.464 127.038C232.255 127.631 233.025 128.267 233.74 128.946C236.017 131.124 237.816 133.679 239.073 136.547C240.374 139.523 241.035 142.682 241.035 145.948C241.025 158.94 230.402 169.505 217.34 169.505ZM217.34 124.569C212.397 124.569 207.573 126.273 203.757 129.378C203.302 129.744 202.868 130.122 202.467 130.521C201.513 131.426 200.635 132.429 199.866 133.507C197.232 137.151 195.844 141.463 195.844 145.97C195.844 148.881 196.419 151.706 197.557 154.358C200.169 160.449 205.578 165.064 212.017 166.692C213.752 167.134 215.54 167.36 217.35 167.36C229.209 167.36 238.857 157.765 238.857 145.97C238.857 140.083 236.504 134.596 232.233 130.521C231.583 129.906 230.889 129.324 230.174 128.785C226.434 126.025 222.001 124.569 217.34 124.569Z" fill="#4A135B"/>
<path d="M220.83 159.123H213.849C213.253 159.123 212.765 158.638 212.765 158.045V150.509H205.188C204.592 150.509 204.104 150.024 204.104 149.431V142.488C204.104 141.895 204.592 141.41 205.188 141.41H212.765V133.873C212.765 133.28 213.253 132.795 213.849 132.795H220.83C221.426 132.795 221.914 133.28 221.914 133.873V141.41H229.491C230.087 141.41 230.575 141.895 230.575 142.488V149.431C230.575 150.024 230.087 150.509 229.491 150.509H221.914V158.045C221.914 158.649 221.437 159.123 220.83 159.123ZM214.933 156.967H219.746V149.431C219.746 148.838 220.234 148.353 220.83 148.353H228.407V143.566H220.83C220.234 143.566 219.746 143.081 219.746 142.488V134.952H214.933V142.488C214.933 143.081 214.445 143.566 213.849 143.566H206.272V148.353H213.849C214.445 148.353 214.933 148.838 214.933 149.431V156.967Z" fill="#4A135B"/>
<path d="M179.205 168.427H162.837C160.094 168.427 157.579 167.177 155.943 164.988C154.848 163.533 154.263 161.797 154.23 159.975C154.23 159.943 154.23 159.899 154.23 159.867C154.23 157.7 155.054 155.63 156.539 154.034C156.604 153.959 156.68 153.883 156.756 153.808C158.382 152.191 160.539 151.307 162.837 151.307H179.205C181.59 151.307 183.888 152.299 185.503 154.034C186.988 155.619 187.812 157.689 187.812 159.867C187.812 164.589 183.953 168.427 179.205 168.427ZM162.837 153.463C161.113 153.463 159.498 154.131 158.284 155.339C158.23 155.393 158.176 155.447 158.121 155.501C157.005 156.697 156.398 158.239 156.398 159.867C156.398 159.878 156.398 159.899 156.398 159.91C156.398 159.921 156.398 159.932 156.398 159.943C156.409 161.312 156.853 162.606 157.677 163.694C158.902 165.333 160.788 166.271 162.837 166.271H179.205C182.76 166.271 185.644 163.403 185.644 159.867C185.644 158.239 185.037 156.697 183.92 155.511C182.706 154.218 180.983 153.463 179.205 153.463H162.837Z" fill="#4A135B"/>
<path d="M172.105 152.385H169.937V167.349H172.105V152.385Z" fill="#4A135B"/>
<path d="M238.173 92.7893L236.64 91.2646L224.423 103.416L225.956 104.941L238.173 92.7893Z" fill="#4A135B"/>
</svg>
