<svg width="26" height="23" viewBox="0 0 26 23" fill="none" xmlns="http://www.w3.org/2000/svg">
<path d="M5.10723 8.06421H2.5088C2.23999 8.06421 2.06079 8.24341 2.06079 8.51221V11.1106C2.06079 11.3795 2.23999 11.5587 2.5088 11.5587H5.10723C5.37603 11.5587 5.55523 11.3795 5.55523 11.1106V8.51221C5.55523 8.24341 5.37603 8.06421 5.10723 8.06421ZM4.65922 10.6178H2.9568V8.91542H4.65922V10.6178Z" fill="#E7E5E4"/>
<path d="M9.81133 8.06421H7.2129C6.94409 8.06421 6.76489 8.24341 6.76489 8.51221V11.1106C6.76489 11.3795 6.94409 11.5587 7.2129 11.5587H9.81133C10.0801 11.5587 10.2593 11.3795 10.2593 11.1106V8.51221C10.2593 8.24341 10.0353 8.06421 9.81133 8.06421ZM9.36332 10.6178H7.6609V8.91542H9.36332V10.6178Z" fill="#E7E5E4"/>
<path d="M14.4705 8.06421H11.8721C11.6033 8.06421 11.4241 8.24341 11.4241 8.51221V11.1106C11.4241 11.3795 11.6033 11.5587 11.8721 11.5587H14.4705C14.7393 11.5587 14.9185 11.3795 14.9185 11.1106V8.51221C14.9185 8.24341 14.7393 8.06421 14.4705 8.06421ZM14.0225 10.6178H12.3201V8.91542H14.0225V10.6178Z" fill="#E7E5E4"/>
<path d="M19.1297 8.06421H16.5313C16.2625 8.06421 16.0833 8.24341 16.0833 8.51221V11.1106C16.0833 11.3795 16.2625 11.5587 16.5313 11.5587H19.1297C19.3985 11.5587 19.5777 11.3795 19.5777 11.1106V8.51221C19.5777 8.24341 19.3985 8.06421 19.1297 8.06421ZM18.6817 10.6178H16.9793V8.91542H18.6817V10.6178Z" fill="#E7E5E4"/>
<path d="M5.10723 17.3826H2.5088C2.23999 17.3826 2.06079 17.5618 2.06079 17.8306V20.429C2.06079 20.6978 2.23999 20.877 2.5088 20.877H5.10723C5.37603 20.877 5.55523 20.6978 5.55523 20.429V17.8306C5.55523 17.6066 5.37603 17.3826 5.10723 17.3826ZM4.65922 19.981H2.9568V18.2786H4.65922V19.981Z" fill="#E7E5E4"/>
<path d="M9.81133 17.3826H7.2129C6.94409 17.3826 6.76489 17.5618 6.76489 17.8306V20.429C6.76489 20.6978 6.94409 20.877 7.2129 20.877H9.81133C10.0801 20.877 10.2593 20.6978 10.2593 20.429V17.8306C10.2593 17.6066 10.0353 17.3826 9.81133 17.3826ZM9.36332 19.981H7.6609V18.2786H9.36332V19.981Z" fill="#E7E5E4"/>
<path d="M14.4705 17.3826H11.8721C11.6033 17.3826 11.4241 17.5618 11.4241 17.8306V20.429C11.4241 20.6978 11.6033 20.877 11.8721 20.877H14.4705C14.7393 20.877 14.9185 20.6978 14.9185 20.429V17.8306C14.9185 17.6066 14.7393 17.3826 14.4705 17.3826ZM14.0225 19.981H12.3201V18.2786H14.0225V19.981Z" fill="#E7E5E4"/>
<path d="M19.1297 17.3826H16.5313C16.2625 17.3826 16.0833 17.5618 16.0833 17.8306V20.429C16.0833 20.6978 16.2625 20.877 16.5313 20.877H19.1297C19.3985 20.877 19.5777 20.6978 19.5777 20.429V17.8306C19.5777 17.6066 19.3985 17.3826 19.1297 17.3826ZM18.6817 19.981H16.9793V18.2786H18.6817V19.981Z" fill="#E7E5E4"/>
<path d="M5.10723 12.7234H2.5088C2.23999 12.7234 2.06079 12.9026 2.06079 13.1714V15.7698C2.06079 16.0386 2.23999 16.2178 2.5088 16.2178H5.10723C5.37603 16.2178 5.55523 16.0386 5.55523 15.7698V13.1714C5.55523 12.9026 5.37603 12.7234 5.10723 12.7234ZM4.65922 15.3218H2.9568V13.6194H4.65922V15.3218Z" fill="#E7E5E4"/>
<path d="M9.81133 12.7234H7.2129C6.94409 12.7234 6.76489 12.9026 6.76489 13.1714V15.7698C6.76489 16.0386 6.94409 16.2178 7.2129 16.2178H9.81133C10.0801 16.2178 10.2593 16.0386 10.2593 15.7698V13.1714C10.2593 12.9026 10.0353 12.7234 9.81133 12.7234ZM9.36332 15.3218H7.6609V13.6194H9.36332V15.3218Z" fill="#E7E5E4"/>
<path d="M14.4705 12.7234H11.8721C11.6033 12.7234 11.4241 12.9026 11.4241 13.1714V15.7698C11.4241 16.0386 11.6033 16.2178 11.8721 16.2178H14.4705C14.7393 16.2178 14.9185 16.0386 14.9185 15.7698V13.1714C14.9185 12.9026 14.7393 12.7234 14.4705 12.7234ZM14.0225 15.3218H12.3201V13.6194H14.0225V15.3218Z" fill="#E7E5E4"/>
<path d="M19.1297 12.7234H16.5313C16.2625 12.7234 16.0833 12.9026 16.0833 13.1714V15.7698C16.0833 16.0386 16.2625 16.2178 16.5313 16.2178H19.1297C19.3985 16.2178 19.5777 16.0386 19.5777 15.7698V13.1714C19.5777 12.9026 19.3985 12.7234 19.1297 12.7234ZM18.6817 15.3218H16.9793V13.6194H18.6817V15.3218Z" fill="#E7E5E4"/>
<path d="M25.9395 19.3986L21.6835 4.07685V3.89765C21.6835 2.86724 20.8323 2.01602 19.8018 2.01602H18.7714C18.5922 0.85121 17.6962 0 16.5762 0C15.4562 0 14.605 0.85121 14.381 2.01602H13.037C12.8578 0.85121 11.9617 0 10.8417 0C9.72172 0 8.87051 0.85121 8.64651 2.01602H7.30249C7.12329 0.85121 6.22728 0 5.10726 0C3.98725 0 3.13604 0.85121 2.95684 2.01602H1.88162C0.85121 2.01602 0 2.86724 0 3.89765V21.0563C0 22.0867 0.85121 22.9379 1.88162 22.9379H19.757C20.6979 22.9379 21.4595 22.2659 21.6387 21.3699H24.4163C24.9091 21.3699 25.3571 21.1459 25.6707 20.7427C25.9843 20.3843 26.0739 19.8914 25.9395 19.3986ZM16.5314 0.851211C17.1138 0.851211 17.6514 1.34402 17.7858 1.97122H15.277C15.4562 1.34402 15.949 0.851211 16.5314 0.851211ZM10.8417 0.851211C11.4241 0.851211 11.9617 1.34402 12.0961 1.97122H9.58732C9.72172 1.34402 10.2145 0.851211 10.8417 0.851211ZM5.10726 0.851211C5.68967 0.851211 6.22728 1.34402 6.36168 1.97122H3.85285C4.03205 1.34402 4.52486 0.851211 5.10726 0.851211ZM1.88162 2.91204H2.91204C3.09124 4.07685 3.98725 4.92806 5.10726 4.92806C5.37607 4.92806 5.55527 4.74886 5.55527 4.48006C5.55527 4.21125 5.37607 4.03205 5.10726 4.03205C4.52486 4.03205 3.98725 3.53924 3.85285 2.91204H8.64651C8.82571 4.07685 9.72172 4.92806 10.8417 4.92806C11.1105 4.92806 11.2897 4.74886 11.2897 4.48006C11.2897 4.21125 11.1105 4.03205 10.8417 4.03205C10.2593 4.03205 9.72172 3.53924 9.58732 2.91204H14.381C14.5602 4.07685 15.4562 4.92806 16.5762 4.92806C16.845 4.92806 17.0242 4.74886 17.0242 4.48006C17.0242 4.21125 16.845 4.03205 16.5762 4.03205C15.9938 4.03205 15.4562 3.53924 15.3218 2.91204H19.8018C20.3395 2.91204 20.7875 3.36004 20.7875 3.89765V5.95847H0.896011V3.89765C0.896011 3.36004 1.34402 2.91204 1.88162 2.91204ZM19.757 22.0867H1.88162C1.34402 22.0867 0.896011 21.6387 0.896011 21.1011V6.85449H20.7875V21.0563C20.7875 21.5939 20.3395 22.0867 19.757 22.0867ZM24.9539 20.2498C24.8195 20.4291 24.6403 20.5187 24.4163 20.5187H21.6835V7.43689L25.0883 19.6674C25.1331 19.8466 25.0883 20.0706 24.9539 20.2498Z" fill="#E7E5E4"/>
</svg>
