<svg width="30" height="23" viewBox="0 0 30 23" fill="none" xmlns="http://www.w3.org/2000/svg">
<path d="M6.85193 1.28572C6.85193 0.575629 7.59811 0 8.5186 0C9.43908 0 10.1853 0.575629 10.1853 1.28572V4.14286C10.1853 4.85295 9.43908 5.42858 8.5186 5.42858C7.59811 5.42858 6.85193 4.85295 6.85193 4.14286V1.28572Z" fill="black"/>
<path d="M19.8149 1.28572C19.8149 0.575629 20.5611 0 21.4815 0C22.402 0 23.1482 0.575629 23.1482 1.28572V4.14286C23.1482 4.85295 22.402 5.42858 21.4815 5.42858C20.5611 5.42858 19.8149 4.85295 19.8149 4.14286V1.28572Z" fill="black"/>
<path d="M7.22227 11.1429C6.40408 11.1429 5.74078 11.6545 5.74078 12.2857V13.4286C5.74078 14.0597 6.40408 14.5714 7.22227 14.5714H8.70375C9.52193 14.5714 10.1852 14.0597 10.1852 13.4286V12.2857C10.1852 11.6545 9.52193 11.1429 8.70375 11.1429H7.22227Z" fill="black"/>
<path d="M7.22227 16C6.40408 16 5.74078 16.5117 5.74078 17.1429V18.2857C5.74078 18.9169 6.40408 19.4286 7.22227 19.4286H8.70375C9.52193 19.4286 10.1852 18.9169 10.1852 18.2857V17.1429C10.1852 16.5117 9.52193 16 8.70375 16H7.22227Z" fill="black"/>
<path d="M12.7778 17.1429C12.7778 16.5117 13.4411 16 14.2593 16H15.7408C16.559 16 17.2223 16.5117 17.2223 17.1429V18.2857C17.2223 18.9169 16.559 19.4286 15.7408 19.4286H14.2593C13.4411 19.4286 12.7778 18.9169 12.7778 18.2857V17.1429Z" fill="black"/>
<path d="M14.2593 11.1429C13.4411 11.1429 12.7778 11.6545 12.7778 12.2857V13.4286C12.7778 14.0597 13.4411 14.5714 14.2593 14.5714H15.7408C16.559 14.5714 17.2223 14.0597 17.2223 13.4286V12.2857C17.2223 11.6545 16.559 11.1429 15.7408 11.1429H14.2593Z" fill="black"/>
<path d="M19.8149 12.2857C19.8149 11.6545 20.4782 11.1429 21.2964 11.1429H22.7778C23.596 11.1429 24.2593 11.6545 24.2593 12.2857V13.4286C24.2593 14.0597 23.596 14.5714 22.7778 14.5714H21.2964C20.4782 14.5714 19.8149 14.0597 19.8149 13.4286V12.2857Z" fill="black"/>
<path fill-rule="evenodd" clip-rule="evenodd" d="M18.7037 2.71426H11.2963V4.14284C11.2963 5.32629 10.0526 6.28569 8.51852 6.28569C6.98441 6.28569 5.74074 5.32629 5.74074 4.14284V2.71426H3.51852C1.5753 2.71426 0 3.92949 0 5.42855V20.2857C0 21.7848 1.5753 23 3.51852 23H26.4815C28.4247 23 30 21.7848 30 20.2857V5.42855C30 3.92949 28.4247 2.71426 26.4815 2.71426H24.2593V4.14284C24.2593 5.32629 23.0156 6.28569 21.4815 6.28569C19.9474 6.28569 18.7037 5.32629 18.7037 4.14284V2.71426ZM27.4074 9.85713H2.59259V20.2857C2.59259 20.6802 3.00715 21 3.51852 21H26.4815C26.9929 21 27.4074 20.6802 27.4074 20.2857V9.85713Z" fill="black"/>
</svg>
