<svg width="28" height="32" viewBox="0 0 28 32" fill="none" xmlns="http://www.w3.org/2000/svg">
<path fill-rule="evenodd" clip-rule="evenodd" d="M0 3C0 1.34315 1.34315 0 3 0H25C26.6569 0 28 1.34315 28 3V14.3389C28 16.2592 27.9699 18.5203 26.9703 20.4738C26.0815 22.211 24.6853 23.7793 22.6906 25.5297C20.6992 27.2772 18.046 29.2609 14.5932 31.8051C14.2404 32.065 13.7596 32.065 13.4068 31.8051C9.95401 29.2609 7.30078 27.2772 5.30939 25.5297C3.31466 23.7793 1.91854 22.211 1.02969 20.4738C0.030097 18.5203 0 16.2592 0 14.3389V3ZM19.669 10.7433C20.0795 10.3738 20.1128 9.74155 19.7433 9.33104C19.3738 8.92053 18.7415 8.88725 18.331 9.25671L12.3333 14.6546L9.66896 12.2567C9.25845 11.8872 8.62616 11.9205 8.25671 12.331C7.88725 12.7415 7.92053 13.3738 8.33104 13.7433L11.6644 16.7433C12.0447 17.0856 12.622 17.0856 13.0023 16.7433L19.669 10.7433Z" fill="black"/>
</svg>
