<svg width="26" height="26" viewBox="0 0 26 26" fill="none" xmlns="http://www.w3.org/2000/svg">
<path d="M10.4548 19.7601H9.89009V19.2208C9.89009 18.9653 9.64842 18.7585 9.34983 18.7585C9.05124 18.7585 8.80957 18.9653 8.80957 19.2208V19.7601H8.21312C7.91453 19.7601 7.67285 19.9669 7.67285 20.2223C7.67285 20.4778 7.91453 20.6846 8.21312 20.6846H8.80957V21.2624C8.80957 21.5178 9.05124 21.7246 9.34983 21.7246C9.64842 21.7246 9.89009 21.5178 9.89009 21.2624V20.6846H10.4548C10.7534 20.6846 10.9951 20.4778 10.9951 20.2223C10.9951 19.9669 10.7534 19.7601 10.4548 19.7601Z" fill="#E7E5E4"/>
<path d="M21.0519 15.104C20.6971 14.9829 20.3618 14.8682 20.0697 14.7456C18.7414 14.1881 17.3792 13.3456 16.6282 12.8529C18.835 11.5992 20.9356 9.43071 20.9356 6.99221C20.9356 3.07115 17.5042 0 13.1234 0C8.74254 0 5.31115 3.07146 5.31115 6.99221C5.31115 9.45043 7.54928 11.5919 9.7532 12.8368C8.85636 13.3339 7.27303 14.182 5.92993 14.7456C5.63783 14.8682 5.30251 14.9829 4.94773 15.104C2.85979 15.8174 0 16.7943 0 21.3557V25.5378C0 25.7932 0.241678 26 0.540263 26C0.637511 26 0.728635 25.9781 0.807874 25.9396H13.0971H13.0978H25.1921C25.271 25.9781 25.3625 26 25.4597 26C25.7583 26 26 25.7932 26 25.5378V21.3554C25.9996 16.7943 23.1398 15.8174 21.0519 15.104ZM6.39168 6.99221C6.39168 3.53278 9.28569 0.924488 13.1234 0.924488C16.961 0.924488 19.855 3.53309 19.855 6.99221C19.855 10.4338 15.0752 13.0599 13.1234 13.0599C12.6623 13.0599 11.933 12.8464 11.1215 12.4661C11.0682 12.427 11.0073 12.3977 10.9425 12.3792C8.88229 11.3666 6.39168 9.32901 6.39168 6.99221ZM13.1234 13.9847C13.8261 13.9847 14.7089 13.7585 15.6251 13.357C16.1009 13.6806 17.1357 14.3579 18.3193 14.973L13.0816 17.7382L7.7852 14.9468C9.05482 14.3317 10.261 13.6618 10.7927 13.3601C11.6985 13.7604 12.5338 13.9847 13.1234 13.9847ZM4.66608 19.8016C5.22759 19.8016 5.68393 20.1924 5.68393 20.6725C5.68393 21.1526 5.22723 21.5437 4.66608 21.5437C4.10492 21.5437 3.64786 21.1529 3.64786 20.6725C3.64786 20.1921 4.10456 19.8016 4.66608 19.8016ZM1.08053 21.3554C1.08053 18.2186 2.52123 17.0907 4.11933 16.4158V18.9409C3.22681 19.1477 2.56769 19.8445 2.56769 20.6725C2.56769 21.6626 3.50919 22.4681 4.66644 22.4681C5.82332 22.4681 6.76482 21.6626 6.76482 20.6725C6.76482 19.8404 6.09885 19.1409 5.19986 18.9381V16.0134C5.24956 15.9961 5.29926 15.9792 5.34861 15.9622C5.72319 15.8343 6.07688 15.7135 6.40608 15.5755C6.50873 15.5323 6.61318 15.4867 6.718 15.4408C6.75365 15.4769 6.79435 15.5098 6.84406 15.536L12.5428 18.5394L12.5561 25.0148H1.08089V21.3554H1.08053ZM24.9191 25.0148H13.6362L13.6229 18.5388L19.3501 15.5151C19.3652 15.5071 19.3782 15.4966 19.3922 15.4876C19.4596 15.5172 19.5266 15.5474 19.5939 15.5758C19.9231 15.7138 20.2768 15.8346 20.6514 15.9625C20.8318 16.0242 21.0144 16.0867 21.1974 16.152V19.3458C20.834 19.426 20.5023 19.5831 20.226 19.8127C19.8071 20.1606 19.5719 20.6275 19.5633 21.1267L19.5406 22.4265C19.5385 22.5504 19.5946 22.6703 19.6966 22.7584C19.7981 22.8463 19.9364 22.8959 20.0809 22.8959C20.0812 22.8959 20.082 22.8959 20.0827 22.8959L20.9907 22.8934C21.2889 22.8928 21.5302 22.6851 21.5291 22.4296C21.5284 22.1748 21.2864 21.9689 20.9889 21.9689C20.9885 21.9689 20.9878 21.9689 20.9871 21.9689L20.6294 21.9698L20.6442 21.1406C20.6485 20.8882 20.7674 20.6525 20.9792 20.4765C21.1909 20.3005 21.473 20.2022 21.7658 20.2096C22.0608 20.213 22.3367 20.315 22.5423 20.4962C22.748 20.6774 22.8585 20.9162 22.8542 21.1689L22.8402 22.0078L22.5394 22.0044C22.5369 22.0044 22.5348 22.0044 22.5322 22.0044C22.2372 22.0044 21.9959 22.2074 21.992 22.4608C21.9884 22.7162 22.2272 22.9255 22.5254 22.9289L23.3653 22.9378C23.3678 22.9378 23.37 22.9378 23.3725 22.9378C23.6671 22.9378 23.9081 22.735 23.9128 22.482L23.9348 21.1822C23.9434 20.6827 23.7244 20.2105 23.3174 19.8522C23.0293 19.5979 22.6702 19.4247 22.2783 19.3418V16.5961C23.71 17.2941 24.9195 18.4814 24.9195 21.3554L24.9191 25.0148Z" fill="#E7E5E4"/>
</svg>
