<svg width="90" height="90" viewBox="0 0 90 90" fill="none" xmlns="http://www.w3.org/2000/svg">
<path d="M89.9659 44.2459C89.1049 19.7639 69.5929 0.481876 45.0029 0.0078758C20.1599 -0.470124 0.47294 20.8799 0.00794013 45.0009C-0.47206 69.8419 20.8809 89.5269 45.0029 89.9919C69.5829 90.4659 89.1059 69.5659 89.9649 45.7609C89.9889 45.5159 90.0029 45.2649 89.9979 45.0009C90.0029 44.7389 89.9889 44.4889 89.9659 44.2459ZM44.3979 67.6909C44.6309 67.9599 44.8809 68.0909 45.1479 68.0909C45.6149 68.0909 46.0639 67.8909 46.4979 67.4899C47.7309 66.4909 49.1809 64.6919 50.8479 62.0929L52.2469 62.8929C48.1819 69.9569 43.8649 73.4899 39.3009 73.4899C37.5669 73.4899 36.1839 72.9969 35.1529 72.0149C34.1189 71.0329 33.6029 69.7889 33.6029 68.2889C33.6029 67.2909 33.8349 66.0239 34.3029 64.4909L39.9009 45.2489C40.4339 43.4169 40.7019 42.0339 40.7019 41.1009C40.7019 40.4999 40.4419 39.9699 39.9269 39.4999C39.4089 39.0339 38.7179 38.8019 37.8529 38.8019C37.4189 38.8019 36.9349 38.8189 36.4019 38.8509L36.9029 37.2519L50.5489 35.0519H52.9479L44.6989 63.6439C44.2649 65.2779 44.0499 66.3589 44.0499 66.8919C44.0499 67.1599 44.1649 67.4259 44.3979 67.6909ZM54.6459 26.6329C53.4799 27.7819 52.0799 28.3549 50.4469 28.3549C48.8479 28.3549 47.4729 27.7819 46.3229 26.6329C45.1739 25.4829 44.5989 24.0919 44.5989 22.4589C44.5989 20.8279 45.1639 19.4269 46.2969 18.2589C47.4309 17.0949 48.8139 16.5109 50.4459 16.5109C52.1119 16.5109 53.5199 17.0949 54.6709 18.2589C55.8189 19.4269 56.3959 20.8269 56.3959 22.4589C56.3959 24.0919 55.8119 25.4819 54.6459 26.6329Z" fill="#C05AE1"/>
</svg>
