<svg width="91" height="93" viewBox="0 0 91 93" fill="none" xmlns="http://www.w3.org/2000/svg">
<path d="M13.4 39.43H25.29C27.44 39.43 29.19 37.68 29.19 35.53V34.65C29.19 30.38 26.46 26.74 22.65 25.38C24.51 24.26 25.76 22.22 25.76 19.89C25.76 16.36 22.88 13.48 19.35 13.48C15.82 13.48 12.94 16.36 12.94 19.89C12.94 22.22 14.19 24.26 16.05 25.38C12.24 26.74 9.51 30.38 9.51 34.65V35.53C9.5 37.68 11.25 39.43 13.4 39.43ZM19.35 16.18C21.4 16.18 23.06 17.84 23.06 19.89C23.06 21.94 21.4 23.6 19.35 23.6C17.3 23.6 15.64 21.94 15.64 19.89C15.64 17.84 17.3 16.18 19.35 16.18ZM12.2 34.65C12.2 30.71 15.41 27.5 19.35 27.5C23.29 27.5 26.5 30.71 26.5 34.65V35.53C26.5 36.19 25.96 36.73 25.3 36.73H13.4C12.74 36.73 12.2 36.19 12.2 35.53V34.65ZM11.71 44.67H39.29C40.04 44.67 40.64 45.27 40.64 46.02C40.64 46.77 40.04 47.37 39.29 47.37H11.71C10.96 47.37 10.36 46.77 10.36 46.02C10.36 45.27 10.97 44.67 11.71 44.67ZM55.53 57.64C55.53 58.39 54.93 58.99 54.18 58.99H11.71C10.96 58.99 10.36 58.39 10.36 57.64C10.36 56.89 10.96 56.29 11.71 56.29H54.18C54.93 56.29 55.53 56.89 55.53 57.64ZM55.53 69.26C55.53 70.01 54.93 70.61 54.18 70.61H11.71C10.96 70.61 10.36 70.01 10.36 69.26C10.36 68.51 10.96 67.91 11.71 67.91H54.18C54.93 67.91 55.53 68.51 55.53 69.26ZM55.53 80.88C55.53 81.63 54.93 82.23 54.18 82.23H11.71C10.96 82.23 10.36 81.63 10.36 80.88C10.36 80.13 10.96 79.53 11.71 79.53H54.18C54.93 79.53 55.53 80.14 55.53 80.88ZM89.41 10.86C80.55 9.41 73.28 5.89 67.78 0.4C67.53 0.15 67.18 0 66.83 0C66.48 0 66.13 0.14 65.88 0.4C64.69 1.59 63.41 2.69 62.05 3.7H5.6C2.51 3.7 0 6.21 0 9.3V87.39C0 90.48 2.51 92.99 5.6 92.99H62.58C65.67 92.99 68.18 90.48 68.18 87.39V54.32C75.56 49.84 81.18 43.99 84.87 36.93C88.48 30.03 90.39 21.72 90.54 12.21C90.55 11.54 90.07 10.97 89.41 10.86ZM62.58 90.28H5.6C4 90.28 2.7 88.98 2.7 87.38V9.29C2.7 7.69 4 6.39 5.6 6.39H57.79C53.81 8.54 49.28 10.03 44.24 10.86C43.58 10.97 43.1 11.54 43.11 12.21C43.26 21.72 45.17 30.03 48.78 36.93C52.48 43.99 58.09 49.83 65.47 54.32V87.38C65.47 88.98 64.17 90.28 62.58 90.28ZM66.82 51.98C53.27 43.74 46.4 31.08 45.83 13.32C54.24 11.76 61.29 8.37 66.82 3.23C72.35 8.37 79.4 11.76 87.81 13.32C87.25 31.08 80.38 43.74 66.82 51.98ZM61.25 15.06V20.44H55.87V31.58H61.25V36.96H72.39V31.58H77.77V20.44H72.39V15.06H61.25ZM75.08 23.14V28.88H69.7V34.26H63.96V28.88H58.57V23.14H63.95V17.76H69.69V23.14H75.08Z" fill="black"/>
</svg>
