<svg width="50" height="50" viewBox="0 0 50 50" fill="none" xmlns="http://www.w3.org/2000/svg">
<rect x="50" y="50" width="50" height="50" rx="25" transform="rotate(-180 50 50)" fill="#"/>
<path d="M33.1458 24.9117C33.1016 24.3999 32.8998 23.9143 32.568 23.5215L23.6998 12.9783C23.4935 12.7158 23.2364 12.4975 22.9438 12.3362C22.6512 12.1749 22.3291 12.0739 21.9966 12.0393C21.6641 12.0046 21.3281 12.037 21.0084 12.1346C20.6887 12.2321 20.392 12.3928 20.1358 12.607C19.8796 12.8213 19.6692 13.0847 19.517 13.3817C19.3649 13.6787 19.2742 14.0032 19.2502 14.3359C19.2263 14.6686 19.2696 15.0027 19.3777 15.3184C19.4857 15.634 19.6562 15.9248 19.8791 16.1734L27.3771 25.085L19.6955 33.8388C19.4675 34.0827 19.2909 34.3699 19.1764 34.6832C19.0618 34.9965 19.0115 35.3297 19.0285 35.6628C19.0456 35.9959 19.1295 36.3222 19.2754 36.6223C19.4214 36.9224 19.6263 37.1902 19.878 37.4097C20.1296 37.6293 20.423 37.7961 20.7405 37.9002C21.0581 38.0044 21.3934 38.0438 21.7265 38.0161C22.0597 37.9884 22.3838 37.8941 22.6797 37.7389C22.9756 37.5837 23.2372 37.3707 23.449 37.1127L32.5344 26.756C32.755 26.5052 32.9229 26.2127 33.0279 25.8959C33.133 25.579 33.1731 25.2443 33.1458 24.9117Z" fill="#4b5563"/>
</svg>
