<svg width="30" height="20" viewBox="0 0 30 20" fill="none" xmlns="http://www.w3.org/2000/svg">
<path d="M2.02048 0C0.908254 0 0 0.91674 0 2.03064V8.276H22.7586V2.03064C22.7586 0.91674 21.8504 0 20.7381 0H2.02048ZM22.7586 8.276V10.3448H26.1752C26.5442 11.1669 27.1498 11.8166 27.931 12.2158V15.7174C27.1506 16.1162 26.5464 16.7655 26.1772 17.5863H21.019H18.1398C20.1169 17.5633 21.7241 15.9479 21.7241 13.9656C21.7241 13.7109 21.6897 13.4642 21.6393 13.224C22.2988 12.8887 22.7586 12.2076 22.7586 11.4198L22.7586 10.3448H2.80142e-05V11.4198C2.80142e-05 12.5337 0.908282 13.4484 2.02051 13.4484H6.20692V17.6388C6.20692 18.7479 7.11756 19.6552 8.2274 19.6553H27.9795C29.0894 19.6552 30 18.7479 30 17.6388V10.2944C30 9.18523 29.0894 8.2762 27.9795 8.276H22.7586ZM3.10345 2.06909H14.4827V3.10352H3.10345V2.06909ZM15.5172 2.06909H17.5862V3.10352H15.5172V2.06909ZM18.6207 2.06909H20.6896V3.10352H18.6207V2.06909ZM3.10345 4.13806H6.20689V7.2677H3.10345V4.13806ZM8.27585 13.4484H14.5131C14.4886 13.6175 14.4726 13.7901 14.4726 13.9656C14.4726 15.9479 16.0818 17.564 18.0589 17.5863H15.1879H10.0316C9.66249 16.7653 9.05632 16.1163 8.27581 15.7174L8.27585 13.4484Z" fill="black"/>
</svg>
