<svg width="58" height="46" viewBox="0 0 58 46" fill="none" xmlns="http://www.w3.org/2000/svg">
<path d="M25.8913 0.000127455C29.081 0.00360962 32.1392 1.27996 34.3947 3.54913C36.6502 5.8183 37.9189 8.89496 37.9224 12.1041C38.0538 22.2649 25.7655 27.9354 18.2188 21.4279C9.63572 14.4099 14.6623 -0.0495065 25.8913 0.000127455ZM36.6713 22.2857C31.2991 28.4574 20.4826 28.4564 15.1113 22.2857C10.6934 23.8632 6.8692 26.7778 4.16357 30.6292C1.45794 34.4807 0.00353145 39.0803 0 43.7965C0.00105926 44.1631 0.146265 44.5143 0.403898 44.7735C0.661532 45.0327 1.01065 45.1788 1.375 45.1799H50.4075C50.7719 45.1788 51.121 45.0327 51.3786 44.7735C51.6362 44.5143 51.7814 44.1631 51.7825 43.7965C51.779 39.0803 50.3246 34.4807 47.619 30.6292C44.9133 26.7778 41.0891 23.8633 36.6713 22.2857ZM55.9086 16.6061H46.4354L49.419 13.6051C49.6685 13.344 49.8062 12.9948 49.8026 12.6327C49.799 12.2705 49.6545 11.9242 49.3999 11.6681C49.1453 11.412 48.8011 11.2666 48.4411 11.263C48.0812 11.2595 47.7341 11.3981 47.4746 11.649L42.1506 17.0039C41.8925 17.2635 41.7467 17.6152 41.7449 17.9824C41.7431 18.3496 41.8856 18.7027 42.1412 18.9648L47.4747 24.3292C47.7343 24.5802 48.0813 24.7188 48.4413 24.7152C48.8012 24.7116 49.1454 24.5661 49.4 24.31C49.6545 24.0539 49.7991 23.7076 49.8027 23.3454C49.8062 22.9833 49.6684 22.6342 49.419 22.3731L46.4367 19.3728H55.9087C56.2686 19.3656 56.6114 19.2167 56.8635 18.9581C57.1156 18.6994 57.2568 18.3516 57.2568 17.9894C57.2568 17.6272 57.1156 17.2794 56.8635 17.0208C56.6114 16.7621 56.2686 16.6133 55.9086 16.6061Z" fill="#88909A"/>
</svg>
