<svg width="50" height="50" viewBox="0 0 50 50" fill="none" xmlns="http://www.w3.org/2000/svg">
<rect width="50" height="50" rx="25" fill="#"/>
<path d="M16.8542 25.0883C16.8984 25.6001 17.1002 26.0857 17.432 26.4785L26.3002 37.0217C26.5065 37.2842 26.7636 37.5025 27.0562 37.6638C27.3488 37.8251 27.6709 37.9261 28.0034 37.9607C28.3359 37.9954 28.6719 37.963 28.9916 37.8654C29.3113 37.7679 29.608 37.6072 29.8642 37.393C30.1204 37.1787 30.3308 36.9153 30.483 36.6183C30.6351 36.3213 30.7258 35.9968 30.7498 35.6641C30.7737 35.3314 30.7304 34.9973 30.6223 34.6816C30.5143 34.366 30.3438 34.0752 30.1209 33.8266L22.6229 24.915L30.3045 16.1612C30.5325 15.9173 30.7091 15.6301 30.8236 15.3168C30.9382 15.0035 30.9885 14.6703 30.9715 14.3372C30.9544 14.0041 30.8705 13.6778 30.7246 13.3777C30.5786 13.0776 30.3737 12.8098 30.122 12.5903C29.8704 12.3707 29.577 12.2039 29.2595 12.0998C28.9419 11.9956 28.6066 11.9562 28.2735 11.9839C27.9403 12.0116 27.6162 12.1059 27.3203 12.2611C27.0244 12.4163 26.7628 12.6293 26.551 12.8873L17.4656 23.244C17.245 23.4948 17.0771 23.7873 16.9721 24.1041C16.867 24.421 16.8269 24.7557 16.8542 25.0883Z" fill="#4b5563"/>
</svg>
