<svg width="30" height="23" viewBox="0 0 30 23" fill="none" xmlns="http://www.w3.org/2000/svg">
<path d="M26 0H4C2.5 0 1.3125 1.23446 1.3125 2.79379V18.2571H0.625C0.25 18.2571 0 18.5169 0 18.9068V19.4266C0 21.3757 1.5625 23 3.4375 23H26.5625C28.4375 23 30 21.3757 30 19.4266V18.9068C30 18.5169 29.75 18.2571 29.375 18.2571H28.6875V2.79379C28.6875 1.29944 27.5 0 26 0ZM2.5625 2.79379C2.5625 1.94915 3.1875 1.29943 4 1.29943H26C26.8125 1.29943 27.4375 1.94915 27.4375 2.79379V18.2571H22.125C21.0625 15.9181 18.75 14.2938 16.1875 14.2938H13.8125C11.25 14.2938 8.9375 15.8531 7.875 18.2571H2.5625V2.79379ZM20.75 18.2571H9.25C10.25 16.6328 11.9375 15.5932 13.8125 15.5932H16.1875C18.0625 15.6582 19.8125 16.6328 20.75 18.2571ZM28.75 19.5565C28.6875 20.726 27.75 21.6356 26.5625 21.6356H3.4375C2.3125 21.6356 1.375 20.726 1.25 19.5565H28.75Z" fill="black"/>
<path d="M15.1251 13.6441C17.6876 13.6441 19.8126 10.3305 19.8126 7.66667C19.8126 5.00283 17.7501 2.85876 15.1251 2.85876C12.5626 2.85876 10.4376 5.00283 10.4376 7.66667C10.4376 10.3955 12.5626 13.6441 15.1251 13.6441ZM15.1251 4.1582C17.0001 4.1582 18.5626 5.71752 18.5626 7.66667C18.5626 9.74577 16.9376 12.3446 15.1251 12.3446C13.3751 12.3446 11.6876 9.6808 11.6876 7.66667C11.6876 5.71752 13.2501 4.1582 15.1251 4.1582Z" fill="black"/>
</svg>
