<svg width="30" height="30" viewBox="0 0 30 30" fill="#333237" xmlns="http://www.w3.org/2000/svg">
<path d="M15 2.8125C8.26934 2.8125 2.8125 8.26934 2.8125 15C2.8125 21.7201 8.28047 27.1875 15 27.1875C21.7301 27.1875 27.1875 21.7301 27.1875 15C27.1875 8.27988 21.7201 2.8125 15 2.8125ZM21.3281 16.875H14.2969C14.2347 16.875 14.1751 16.8503 14.1311 16.8064C14.0872 16.7624 14.0625 16.7028 14.0625 16.6406V6.79688C14.0625 6.73471 14.0872 6.6751 14.1311 6.63115C14.1751 6.58719 14.2347 6.5625 14.2969 6.5625H15.7031C15.7653 6.5625 15.8249 6.58719 15.8689 6.63115C15.9128 6.6751 15.9375 6.73471 15.9375 6.79688V15H21.3281C21.3903 15 21.4499 15.0247 21.4939 15.0686C21.5378 15.1126 21.5625 15.1722 21.5625 15.2344V16.6406C21.5625 16.7028 21.5378 16.7624 21.4939 16.8064C21.4499 16.8503 21.3903 16.875 21.3281 16.875Z" fill="#333237"/>
</svg>
