<svg width="30" height="30" viewBox="0 0 30 30" fill="#333237" xmlns="http://www.w3.org/2000/svg">
<path d="M27.1875 22.5229C26.925 22.5227 26.6655 22.4674 26.4258 22.3605C26.37 22.3358 26.3168 22.3056 26.267 22.2703L21.4207 18.859C21.1749 18.686 20.9743 18.4564 20.8359 18.1896C20.6974 17.9229 20.6251 17.6267 20.625 17.3262V12.6738C20.6251 12.3733 20.6974 12.0771 20.8359 11.8104C20.9743 11.5436 21.1749 11.314 21.4207 11.141L26.267 7.72969C26.3168 7.69444 26.37 7.66421 26.4258 7.63945C26.7113 7.51254 27.0239 7.45896 27.3354 7.4836C27.6468 7.50823 27.9471 7.61029 28.2091 7.78052C28.4711 7.95074 28.6864 8.18372 28.8354 8.45829C28.9844 8.73286 29.0625 9.04032 29.0625 9.35273V20.6473C29.0625 21.1445 28.865 21.6215 28.5133 21.9731C28.1617 22.3247 27.6848 22.5223 27.1875 22.5223V22.5229ZM15.7031 23.4375H4.92188C3.86549 23.4364 2.85268 23.0163 2.1057 22.2693C1.35872 21.5223 0.938586 20.5095 0.9375 19.4531V10.5469C0.938586 9.49049 1.35872 8.47768 2.1057 7.7307C2.85268 6.98372 3.86549 6.56359 4.92188 6.5625H15.7313C16.7801 6.56374 17.7857 6.98096 18.5274 7.72263C19.269 8.4643 19.6863 9.46987 19.6875 10.5188V19.4531C19.6864 20.5095 19.2663 21.5223 18.5193 22.2693C17.7723 23.0163 16.7595 23.4364 15.7031 23.4375Z" fill="#333237"/>
</svg>
