<svg width="46" height="42" viewBox="0 0 46 42" fill="#333237" xmlns="http://www.w3.org/2000/svg">
<path d="M29.4665 11.6528H4.98905C2.39332 11.6528 0.289062 13.3362 0.289062 15.4128V26.5875C0.289062 28.6641 2.39332 30.3475 4.98905 30.3475H29.4665C32.0623 30.3475 34.1665 28.6641 34.1665 26.5875V15.4128C34.1665 13.3362 32.0623 11.6528 29.4665 11.6528Z" fill="#D9D9D9"/>
<path d="M42.0153 14.5402L36.0464 17.0444V24.9629L42.0153 27.467C42.3775 27.655 42.7964 27.7611 43.2278 27.774C43.6591 27.7869 44.0868 27.7063 44.4655 27.5405C44.8442 27.3748 45.1598 27.1302 45.3788 26.8326C45.5978 26.535 45.7121 26.1956 45.7095 25.8503V16.1571C45.7043 15.8142 45.5853 15.4786 45.3645 15.1848C45.1437 14.8909 44.8292 14.6493 44.4532 14.4847C44.0772 14.3202 43.6533 14.2386 43.2249 14.2483C42.7965 14.2581 42.379 14.3588 42.0153 14.5402Z" fill="#D9D9D9"/>
<path d="M39.2927 32.6689C31.8827 43.1102 12.563 43.1126 5.15039 32.6692C5.02336 32.5003 4.8185 32.378 4.57989 32.3286C4.34129 32.2793 4.08801 32.3069 3.87457 32.4054C3.66112 32.504 3.50457 32.6656 3.43861 32.8556C3.37264 33.0456 3.40254 33.2486 3.52186 33.4211C11.6421 44.8608 32.8036 44.8583 40.9211 33.421C41.0401 33.2485 41.0698 33.0455 41.0038 32.8557C40.9378 32.6659 40.7813 32.5044 40.568 32.4059C40.3547 32.3074 40.1017 32.2798 39.8632 32.329C39.6247 32.3781 39.4199 32.5002 39.2927 32.6689Z" fill="#D9D9D9"/>
<path d="M5.1505 9.33103C12.5601 -1.11005 31.8807 -1.11266 39.2929 9.33085C39.4198 9.49993 39.6246 9.62236 39.8633 9.67179C40.102 9.72121 40.3553 9.69366 40.5689 9.59508C40.7824 9.4965 40.939 9.33478 41.0049 9.14474C41.0708 8.9547 41.0408 8.75155 40.9213 8.57904C32.8034 -2.85845 11.6429 -2.86084 3.52208 8.57881C3.40373 8.75125 3.37453 8.95392 3.44071 9.14338C3.5069 9.33284 3.66322 9.49402 3.87617 9.59239C4.08912 9.69077 4.34177 9.7185 4.57997 9.66964C4.81817 9.62079 5.02297 9.49924 5.1505 9.33103Z" fill="#D9D9D9"/>
</svg>
