<svg width="172" height="24" viewBox="0 0 172 24" fill="none" xmlns="http://www.w3.org/2000/svg">
<path d="M3.02388 16.431L6.38721 13.859C6.1949 13.2749 6.09091 12.65 6.09091 12C6.09091 11.35 6.1949 10.7252 6.38721 10.141L3.02388 7.56909C2.36791 8.90275 2 10.4063 2 12C2 13.5937 2.36791 15.0973 3.02388 16.431Z" fill="#FBBC05"/>
<path d="M6.38725 10.141C7.16325 7.78407 9.3773 6.09091 12 6.09091C13.4091 6.09091 14.6819 6.59091 15.6819 7.40909L18.591 4.5C16.8182 2.95455 14.5455 2 12 2C8.04828 2 4.6505 4.2621 3.02393 7.56906L6.38725 10.141Z" fill="#EA4335"/>
<path d="M11.9999 21.9999C8.04707 21.9999 4.6485 19.7366 3.02246 16.4281L6.38442 13.8506C7.15795 16.2119 9.37411 17.909 11.9999 17.909C13.2848 17.909 14.4233 17.6064 15.3249 17.0374L18.5179 19.5094C16.77 21.1346 14.4391 21.9999 11.9999 21.9999Z" fill="#34A853"/>
<path d="M12 10.1819H21.3182C21.4545 10.7728 21.5455 11.4092 21.5455 12.0001C21.5455 15.2594 20.3531 17.8033 18.5179 19.5096L15.325 17.0376C16.369 16.3787 17.0953 15.3626 17.3636 14.0455H12V10.1819Z" fill="#4285F4"/>
<path d="M39.3828 14.125C39.3828 13.8594 39.3411 13.625 39.2578 13.4219C39.1797 13.2135 39.0391 13.026 38.8359 12.8594C38.638 12.6927 38.362 12.5339 38.0078 12.3828C37.6589 12.2318 37.2161 12.0781 36.6797 11.9219C36.1172 11.7552 35.6094 11.5703 35.1562 11.3672C34.7031 11.1589 34.3151 10.9219 33.9922 10.6562C33.6693 10.3906 33.4219 10.0859 33.25 9.74219C33.0781 9.39844 32.9922 9.00521 32.9922 8.5625C32.9922 8.11979 33.0833 7.71094 33.2656 7.33594C33.4479 6.96094 33.7083 6.63542 34.0469 6.35938C34.3906 6.07812 34.7995 5.85938 35.2734 5.70312C35.7474 5.54688 36.276 5.46875 36.8594 5.46875C37.7135 5.46875 38.4375 5.63281 39.0312 5.96094C39.6302 6.28385 40.0859 6.70833 40.3984 7.23438C40.7109 7.75521 40.8672 8.3125 40.8672 8.90625H39.3672C39.3672 8.47917 39.276 8.10156 39.0938 7.77344C38.9115 7.4401 38.6354 7.17969 38.2656 6.99219C37.8958 6.79948 37.4271 6.70312 36.8594 6.70312C36.3229 6.70312 35.8802 6.78385 35.5312 6.94531C35.1823 7.10677 34.9219 7.32552 34.75 7.60156C34.5833 7.8776 34.5 8.19271 34.5 8.54688C34.5 8.78646 34.5495 9.00521 34.6484 9.20312C34.7526 9.39583 34.9115 9.57552 35.125 9.74219C35.3438 9.90885 35.6198 10.0625 35.9531 10.2031C36.2917 10.3438 36.6953 10.4792 37.1641 10.6094C37.8099 10.7917 38.3672 10.9948 38.8359 11.2188C39.3047 11.4427 39.6901 11.6953 39.9922 11.9766C40.2995 12.2526 40.526 12.5677 40.6719 12.9219C40.8229 13.2708 40.8984 13.6667 40.8984 14.1094C40.8984 14.5729 40.8047 14.9922 40.6172 15.3672C40.4297 15.7422 40.1615 16.0625 39.8125 16.3281C39.4635 16.5938 39.0443 16.7995 38.5547 16.9453C38.0703 17.0859 37.5286 17.1562 36.9297 17.1562C36.4036 17.1562 35.8854 17.0833 35.375 16.9375C34.8698 16.7917 34.4089 16.5729 33.9922 16.2812C33.5807 15.9896 33.25 15.6302 33 15.2031C32.7552 14.7708 32.6328 14.2708 32.6328 13.7031H34.1328C34.1328 14.0938 34.2083 14.4297 34.3594 14.7109C34.5104 14.987 34.7161 15.2161 34.9766 15.3984C35.2422 15.5807 35.5417 15.7161 35.875 15.8047C36.2135 15.888 36.5651 15.9297 36.9297 15.9297C37.4557 15.9297 37.901 15.8568 38.2656 15.7109C38.6302 15.5651 38.9062 15.3568 39.0938 15.0859C39.2865 14.8151 39.3828 14.4948 39.3828 14.125ZM44.3219 8.54688V17H42.8687V8.54688H44.3219ZM42.7594 6.30469C42.7594 6.07031 42.8297 5.8724 42.9703 5.71094C43.1161 5.54948 43.3297 5.46875 43.6109 5.46875C43.887 5.46875 44.0979 5.54948 44.2437 5.71094C44.3948 5.8724 44.4703 6.07031 44.4703 6.30469C44.4703 6.52865 44.3948 6.72135 44.2437 6.88281C44.0979 7.03906 43.887 7.11719 43.6109 7.11719C43.3297 7.11719 43.1161 7.03906 42.9703 6.88281C42.8297 6.72135 42.7594 6.52865 42.7594 6.30469ZM52.2688 8.54688H53.5813V16.8203C53.5813 17.5651 53.4302 18.2005 53.1281 18.7266C52.826 19.2526 52.4042 19.651 51.8625 19.9219C51.326 20.1979 50.7063 20.3359 50.0031 20.3359C49.7115 20.3359 49.3677 20.2891 48.9719 20.1953C48.5813 20.1068 48.1958 19.9531 47.8156 19.7344C47.4406 19.5208 47.1255 19.2318 46.8703 18.8672L47.6281 18.0078C47.9823 18.4349 48.3521 18.7318 48.7375 18.8984C49.1281 19.0651 49.5135 19.1484 49.8938 19.1484C50.3521 19.1484 50.7479 19.0625 51.0813 18.8906C51.4146 18.7188 51.6724 18.4635 51.8547 18.125C52.0422 17.7917 52.1359 17.3802 52.1359 16.8906V10.4062L52.2688 8.54688ZM46.4484 12.8672V12.7031C46.4484 12.0573 46.524 11.4714 46.675 10.9453C46.8313 10.4141 47.0526 9.95833 47.3391 9.57812C47.6307 9.19792 47.9823 8.90625 48.3938 8.70312C48.8052 8.49479 49.2688 8.39062 49.7844 8.39062C50.3156 8.39062 50.7792 8.48438 51.175 8.67188C51.576 8.85417 51.9146 9.1224 52.1906 9.47656C52.4719 9.82552 52.6932 10.2474 52.8547 10.7422C53.0161 11.237 53.1281 11.7969 53.1906 12.4219V13.1406C53.1333 13.7604 53.0214 14.3177 52.8547 14.8125C52.6932 15.3073 52.4719 15.7292 52.1906 16.0781C51.9146 16.4271 51.576 16.6953 51.175 16.8828C50.774 17.0651 50.3052 17.1562 49.7688 17.1562C49.2635 17.1562 48.8052 17.0495 48.3938 16.8359C47.9875 16.6224 47.6385 16.3229 47.3469 15.9375C47.0552 15.5521 46.8313 15.099 46.675 14.5781C46.524 14.0521 46.4484 13.4818 46.4484 12.8672ZM47.8938 12.7031V12.8672C47.8938 13.2891 47.9354 13.6849 48.0188 14.0547C48.1073 14.4245 48.2401 14.75 48.4172 15.0312C48.5995 15.3125 48.8313 15.5339 49.1125 15.6953C49.3938 15.8516 49.7297 15.9297 50.1203 15.9297C50.5995 15.9297 50.9953 15.8281 51.3078 15.625C51.6203 15.4219 51.8677 15.1536 52.05 14.8203C52.2375 14.487 52.3833 14.125 52.4875 13.7344V11.8516C52.4302 11.5651 52.3417 11.2891 52.2219 11.0234C52.1073 10.7526 51.9563 10.513 51.7688 10.3047C51.5865 10.0911 51.3599 9.92188 51.0891 9.79688C50.8182 9.67188 50.5005 9.60938 50.1359 9.60938C49.7401 9.60938 49.399 9.69271 49.1125 9.85938C48.8313 10.0208 48.5995 10.2448 48.4172 10.5312C48.2401 10.8125 48.1073 11.1406 48.0188 11.5156C47.9354 11.8854 47.8938 12.2812 47.8938 12.7031ZM57.3719 10.3516V17H55.9266V8.54688H57.2938L57.3719 10.3516ZM57.0281 12.4531L56.4266 12.4297C56.4318 11.8516 56.5177 11.3177 56.6844 10.8281C56.851 10.3333 57.0854 9.90365 57.3875 9.53906C57.6896 9.17448 58.049 8.89323 58.4656 8.69531C58.8875 8.49219 59.3536 8.39062 59.8641 8.39062C60.2807 8.39062 60.6557 8.44792 60.9891 8.5625C61.3224 8.67188 61.6063 8.84896 61.8406 9.09375C62.0802 9.33854 62.2625 9.65625 62.3875 10.0469C62.5125 10.4323 62.575 10.9036 62.575 11.4609V17H61.1219V11.4453C61.1219 11.0026 61.0568 10.6484 60.9266 10.3828C60.7964 10.112 60.6063 9.91667 60.3563 9.79688C60.1063 9.67188 59.799 9.60938 59.4344 9.60938C59.075 9.60938 58.7469 9.6849 58.45 9.83594C58.1583 9.98698 57.9057 10.1953 57.6922 10.4609C57.4839 10.7266 57.3198 11.0312 57.2 11.375C57.0854 11.7135 57.0281 12.0729 57.0281 12.4531ZM70.6094 8.54688V17H69.1562V8.54688H70.6094ZM69.0469 6.30469C69.0469 6.07031 69.1172 5.8724 69.2578 5.71094C69.4036 5.54948 69.6172 5.46875 69.8984 5.46875C70.1745 5.46875 70.3854 5.54948 70.5312 5.71094C70.6823 5.8724 70.7578 6.07031 70.7578 6.30469C70.7578 6.52865 70.6823 6.72135 70.5312 6.88281C70.3854 7.03906 70.1745 7.11719 69.8984 7.11719C69.6172 7.11719 69.4036 7.03906 69.2578 6.88281C69.1172 6.72135 69.0469 6.52865 69.0469 6.30469ZM74.525 10.3516V17H73.0797V8.54688H74.4469L74.525 10.3516ZM74.1813 12.4531L73.5797 12.4297C73.5849 11.8516 73.6708 11.3177 73.8375 10.8281C74.0042 10.3333 74.2385 9.90365 74.5406 9.53906C74.8427 9.17448 75.2021 8.89323 75.6188 8.69531C76.0406 8.49219 76.5068 8.39062 77.0172 8.39062C77.4339 8.39062 77.8089 8.44792 78.1422 8.5625C78.4755 8.67188 78.7594 8.84896 78.9938 9.09375C79.2333 9.33854 79.4156 9.65625 79.5406 10.0469C79.6656 10.4323 79.7281 10.9036 79.7281 11.4609V17H78.275V11.4453C78.275 11.0026 78.2099 10.6484 78.0797 10.3828C77.9495 10.112 77.7594 9.91667 77.5094 9.79688C77.2594 9.67188 76.9521 9.60938 76.5875 9.60938C76.2281 9.60938 75.9 9.6849 75.6031 9.83594C75.3115 9.98698 75.0589 10.1953 74.8453 10.4609C74.637 10.7266 74.4729 11.0312 74.3531 11.375C74.2385 11.7135 74.1813 12.0729 74.1813 12.4531ZM88.3328 15.5L90.5047 8.54688H91.4578L91.2703 9.92969L89.0594 17H88.1297L88.3328 15.5ZM86.8719 8.54688L88.7234 15.5781L88.8563 17H87.8797L85.4266 8.54688H86.8719ZM93.5359 15.5234L95.3016 8.54688H96.7391L94.2859 17H93.3172L93.5359 15.5234ZM91.6688 8.54688L93.7938 15.3828L94.0359 17H93.1141L90.8406 9.91406L90.6531 8.54688H91.6688ZM99.9437 8.54688V17H98.4906V8.54688H99.9437ZM98.3812 6.30469C98.3812 6.07031 98.4516 5.8724 98.5922 5.71094C98.738 5.54948 98.9516 5.46875 99.2328 5.46875C99.5089 5.46875 99.7198 5.54948 99.8656 5.71094C100.017 5.8724 100.092 6.07031 100.092 6.30469C100.092 6.52865 100.017 6.72135 99.8656 6.88281C99.7198 7.03906 99.5089 7.11719 99.2328 7.11719C98.9516 7.11719 98.738 7.03906 98.5922 6.88281C98.4516 6.72135 98.3812 6.52865 98.3812 6.30469ZM105.953 8.54688V9.65625H101.383V8.54688H105.953ZM102.93 6.49219H104.375V14.9062C104.375 15.1927 104.419 15.4089 104.508 15.5547C104.596 15.7005 104.711 15.7969 104.852 15.8438C104.992 15.8906 105.143 15.9141 105.305 15.9141C105.424 15.9141 105.549 15.9036 105.68 15.8828C105.815 15.8568 105.917 15.8359 105.984 15.8203L105.992 17C105.878 17.0365 105.727 17.0703 105.539 17.1016C105.357 17.138 105.135 17.1562 104.875 17.1562C104.521 17.1562 104.195 17.0859 103.898 16.9453C103.602 16.8047 103.365 16.5703 103.188 16.2422C103.016 15.9089 102.93 15.4609 102.93 14.8984V6.49219ZM109.244 5V17H107.798V5H109.244ZM108.9 12.4531L108.298 12.4297C108.304 11.8516 108.39 11.3177 108.556 10.8281C108.723 10.3333 108.957 9.90365 109.259 9.53906C109.561 9.17448 109.921 8.89323 110.338 8.69531C110.759 8.49219 111.226 8.39062 111.736 8.39062C112.153 8.39062 112.528 8.44792 112.861 8.5625C113.194 8.67188 113.478 8.84896 113.713 9.09375C113.952 9.33854 114.134 9.65625 114.259 10.0469C114.384 10.4323 114.447 10.9036 114.447 11.4609V17H112.994V11.4453C112.994 11.0026 112.929 10.6484 112.798 10.3828C112.668 10.112 112.478 9.91667 112.228 9.79688C111.978 9.67188 111.671 9.60938 111.306 9.60938C110.947 9.60938 110.619 9.6849 110.322 9.83594C110.03 9.98698 109.778 10.1953 109.564 10.4609C109.356 10.7266 109.192 11.0312 109.072 11.375C108.957 11.7135 108.9 12.0729 108.9 12.4531ZM129.505 11.3359V15.5C129.364 15.7083 129.14 15.9427 128.833 16.2031C128.526 16.4583 128.101 16.6823 127.559 16.875C127.023 17.0625 126.33 17.1562 125.481 17.1562C124.789 17.1562 124.151 17.0365 123.567 16.7969C122.989 16.5521 122.486 16.1979 122.059 15.7344C121.637 15.2656 121.309 14.6979 121.075 14.0312C120.846 13.3594 120.731 12.599 120.731 11.75V10.8672C120.731 10.0182 120.83 9.26042 121.028 8.59375C121.231 7.92708 121.528 7.36198 121.919 6.89844C122.309 6.42969 122.789 6.07552 123.356 5.83594C123.924 5.59115 124.575 5.46875 125.309 5.46875C126.179 5.46875 126.906 5.61979 127.489 5.92188C128.078 6.21875 128.536 6.63021 128.864 7.15625C129.197 7.68229 129.411 8.28125 129.505 8.95312H127.997C127.929 8.54167 127.794 8.16667 127.591 7.82812C127.393 7.48958 127.109 7.21875 126.739 7.01562C126.369 6.80729 125.893 6.70312 125.309 6.70312C124.783 6.70312 124.328 6.79948 123.942 6.99219C123.557 7.1849 123.239 7.46094 122.989 7.82031C122.739 8.17969 122.552 8.61458 122.427 9.125C122.307 9.63542 122.247 10.2109 122.247 10.8516V11.75C122.247 12.4062 122.322 12.9922 122.473 13.5078C122.63 14.0234 122.851 14.4635 123.137 14.8281C123.424 15.1875 123.765 15.4609 124.161 15.6484C124.562 15.8359 125.005 15.9297 125.489 15.9297C126.026 15.9297 126.46 15.8854 126.794 15.7969C127.127 15.7031 127.387 15.5938 127.575 15.4688C127.762 15.3385 127.906 15.2161 128.005 15.1016V12.5547H125.372V11.3359H129.505ZM131.553 12.8672V12.6875C131.553 12.0781 131.642 11.513 131.819 10.9922C131.996 10.4661 132.251 10.0104 132.584 9.625C132.918 9.23438 133.321 8.93229 133.795 8.71875C134.269 8.5 134.801 8.39062 135.389 8.39062C135.983 8.39062 136.517 8.5 136.991 8.71875C137.47 8.93229 137.876 9.23438 138.209 9.625C138.548 10.0104 138.806 10.4661 138.983 10.9922C139.16 11.513 139.248 12.0781 139.248 12.6875V12.8672C139.248 13.4766 139.16 14.0417 138.983 14.5625C138.806 15.0833 138.548 15.5391 138.209 15.9297C137.876 16.3151 137.472 16.6172 136.998 16.8359C136.53 17.0495 135.998 17.1562 135.405 17.1562C134.811 17.1562 134.277 17.0495 133.803 16.8359C133.329 16.6172 132.923 16.3151 132.584 15.9297C132.251 15.5391 131.996 15.0833 131.819 14.5625C131.642 14.0417 131.553 13.4766 131.553 12.8672ZM132.998 12.6875V12.8672C132.998 13.2891 133.048 13.6875 133.147 14.0625C133.246 14.4323 133.394 14.7604 133.592 15.0469C133.795 15.3333 134.048 15.5599 134.35 15.7266C134.652 15.888 135.004 15.9688 135.405 15.9688C135.801 15.9688 136.147 15.888 136.444 15.7266C136.746 15.5599 136.996 15.3333 137.194 15.0469C137.392 14.7604 137.54 14.4323 137.639 14.0625C137.743 13.6875 137.795 13.2891 137.795 12.8672V12.6875C137.795 12.2708 137.743 11.8776 137.639 11.5078C137.54 11.1328 137.389 10.8021 137.186 10.5156C136.988 10.224 136.738 9.99479 136.436 9.82812C136.139 9.66146 135.79 9.57812 135.389 9.57812C134.993 9.57812 134.644 9.66146 134.342 9.82812C134.045 9.99479 133.795 10.224 133.592 10.5156C133.394 10.8021 133.246 11.1328 133.147 11.5078C133.048 11.8776 132.998 12.2708 132.998 12.6875ZM140.828 12.8672V12.6875C140.828 12.0781 140.917 11.513 141.094 10.9922C141.271 10.4661 141.526 10.0104 141.859 9.625C142.193 9.23438 142.596 8.93229 143.07 8.71875C143.544 8.5 144.076 8.39062 144.664 8.39062C145.258 8.39062 145.792 8.5 146.266 8.71875C146.745 8.93229 147.151 9.23438 147.484 9.625C147.823 10.0104 148.081 10.4661 148.258 10.9922C148.435 11.513 148.523 12.0781 148.523 12.6875V12.8672C148.523 13.4766 148.435 14.0417 148.258 14.5625C148.081 15.0833 147.823 15.5391 147.484 15.9297C147.151 16.3151 146.747 16.6172 146.273 16.8359C145.805 17.0495 145.273 17.1562 144.68 17.1562C144.086 17.1562 143.552 17.0495 143.078 16.8359C142.604 16.6172 142.198 16.3151 141.859 15.9297C141.526 15.5391 141.271 15.0833 141.094 14.5625C140.917 14.0417 140.828 13.4766 140.828 12.8672ZM142.273 12.6875V12.8672C142.273 13.2891 142.323 13.6875 142.422 14.0625C142.521 14.4323 142.669 14.7604 142.867 15.0469C143.07 15.3333 143.323 15.5599 143.625 15.7266C143.927 15.888 144.279 15.9688 144.68 15.9688C145.076 15.9688 145.422 15.888 145.719 15.7266C146.021 15.5599 146.271 15.3333 146.469 15.0469C146.667 14.7604 146.815 14.4323 146.914 14.0625C147.018 13.6875 147.07 13.2891 147.07 12.8672V12.6875C147.07 12.2708 147.018 11.8776 146.914 11.5078C146.815 11.1328 146.664 10.8021 146.461 10.5156C146.263 10.224 146.013 9.99479 145.711 9.82812C145.414 9.66146 145.065 9.57812 144.664 9.57812C144.268 9.57812 143.919 9.66146 143.617 9.82812C143.32 9.99479 143.07 10.224 142.867 10.5156C142.669 10.8021 142.521 11.1328 142.422 11.5078C142.323 11.8776 142.273 12.2708 142.273 12.6875ZM155.963 8.54688H157.275V16.8203C157.275 17.5651 157.124 18.2005 156.822 18.7266C156.52 19.2526 156.098 19.651 155.556 19.9219C155.02 20.1979 154.4 20.3359 153.697 20.3359C153.405 20.3359 153.061 20.2891 152.666 20.1953C152.275 20.1068 151.89 19.9531 151.509 19.7344C151.134 19.5208 150.819 19.2318 150.564 18.8672L151.322 18.0078C151.676 18.4349 152.046 18.7318 152.431 18.8984C152.822 19.0651 153.207 19.1484 153.588 19.1484C154.046 19.1484 154.442 19.0625 154.775 18.8906C155.108 18.7188 155.366 18.4635 155.548 18.125C155.736 17.7917 155.83 17.3802 155.83 16.8906V10.4062L155.963 8.54688ZM150.142 12.8672V12.7031C150.142 12.0573 150.218 11.4714 150.369 10.9453C150.525 10.4141 150.746 9.95833 151.033 9.57812C151.324 9.19792 151.676 8.90625 152.088 8.70312C152.499 8.49479 152.963 8.39062 153.478 8.39062C154.009 8.39062 154.473 8.48438 154.869 8.67188C155.27 8.85417 155.608 9.1224 155.884 9.47656C156.166 9.82552 156.387 10.2474 156.548 10.7422C156.71 11.237 156.822 11.7969 156.884 12.4219V13.1406C156.827 13.7604 156.715 14.3177 156.548 14.8125C156.387 15.3073 156.166 15.7292 155.884 16.0781C155.608 16.4271 155.27 16.6953 154.869 16.8828C154.468 17.0651 153.999 17.1562 153.463 17.1562C152.957 17.1562 152.499 17.0495 152.088 16.8359C151.681 16.6224 151.332 16.3229 151.041 15.9375C150.749 15.5521 150.525 15.099 150.369 14.5781C150.218 14.0521 150.142 13.4818 150.142 12.8672ZM151.588 12.7031V12.8672C151.588 13.2891 151.629 13.6849 151.713 14.0547C151.801 14.4245 151.934 14.75 152.111 15.0312C152.293 15.3125 152.525 15.5339 152.806 15.6953C153.088 15.8516 153.423 15.9297 153.814 15.9297C154.293 15.9297 154.689 15.8281 155.002 15.625C155.314 15.4219 155.561 15.1536 155.744 14.8203C155.931 14.487 156.077 14.125 156.181 13.7344V11.8516C156.124 11.5651 156.035 11.2891 155.916 11.0234C155.801 10.7526 155.65 10.513 155.463 10.3047C155.28 10.0911 155.054 9.92188 154.783 9.79688C154.512 9.67188 154.194 9.60938 153.83 9.60938C153.434 9.60938 153.093 9.69271 152.806 9.85938C152.525 10.0208 152.293 10.2448 152.111 10.5312C151.934 10.8125 151.801 11.1406 151.713 11.5156C151.629 11.8854 151.588 12.2812 151.588 12.7031ZM161.191 5V17H159.738V5H161.191ZM167.169 17.1562C166.58 17.1562 166.046 17.0573 165.567 16.8594C165.093 16.6562 164.684 16.3724 164.341 16.0078C164.002 15.6432 163.742 15.2109 163.559 14.7109C163.377 14.2109 163.286 13.6641 163.286 13.0703V12.7422C163.286 12.0547 163.387 11.4427 163.591 10.9062C163.794 10.3646 164.07 9.90625 164.419 9.53125C164.768 9.15625 165.164 8.8724 165.606 8.67969C166.049 8.48698 166.507 8.39062 166.981 8.39062C167.585 8.39062 168.106 8.49479 168.544 8.70312C168.986 8.91146 169.348 9.20312 169.63 9.57812C169.911 9.94792 170.119 10.3854 170.255 10.8906C170.39 11.3906 170.458 11.9375 170.458 12.5312V13.1797H164.145V12H169.012V11.8906C168.992 11.5156 168.914 11.151 168.778 10.7969C168.648 10.4427 168.44 10.151 168.153 9.92188C167.867 9.69271 167.476 9.57812 166.981 9.57812C166.653 9.57812 166.351 9.64844 166.075 9.78906C165.799 9.92448 165.562 10.1276 165.364 10.3984C165.166 10.6693 165.012 11 164.903 11.3906C164.794 11.7812 164.739 12.2318 164.739 12.7422V13.0703C164.739 13.4714 164.794 13.849 164.903 14.2031C165.018 14.5521 165.182 14.8594 165.395 15.125C165.614 15.3906 165.877 15.599 166.184 15.75C166.497 15.901 166.851 15.9766 167.247 15.9766C167.757 15.9766 168.19 15.8724 168.544 15.6641C168.898 15.4557 169.208 15.1771 169.473 14.8281L170.348 15.5234C170.166 15.7995 169.934 16.0625 169.653 16.3125C169.372 16.5625 169.026 16.7656 168.614 16.9219C168.208 17.0781 167.726 17.1562 167.169 17.1562Z" fill="white"/>
</svg>
