<svg width="48" height="26" viewBox="0 0 48 26" fill="none" xmlns="http://www.w3.org/2000/svg">
<path d="M23.3454 0.0192475C22.4105 0.10981 21.5264 0.488114 20.8145 1.10225L1.70454 17.5182C1.22861 17.9005 0.834222 18.3748 0.544823 18.9129C0.255425 19.451 0.0769204 20.0419 0.0199168 20.6505C-0.0370868 21.2591 0.0285749 21.873 0.213 22.4556C0.397425 23.0383 0.696848 23.5779 1.09347 24.0422C1.4901 24.5066 1.97583 24.8864 2.52181 25.1589C3.06778 25.4314 3.66284 25.5912 4.27163 25.6286C4.88042 25.6661 5.49052 25.5805 6.06565 25.377C6.64078 25.1734 7.16921 24.856 7.61954 24.4437L23.772 10.5642L39.9245 24.4437C40.3749 24.856 40.9033 25.1734 41.4784 25.377C42.0536 25.5805 42.6636 25.6661 43.2724 25.6286C43.8812 25.5912 44.4763 25.4314 45.0223 25.1589C45.5682 24.8864 46.054 24.5066 46.4506 24.0422C46.8472 23.5779 47.1467 23.0383 47.3311 22.4556C47.5155 21.873 47.5812 21.2591 47.5242 20.6505C47.4672 20.0419 47.2886 19.451 46.9992 18.9129C46.7098 18.3748 46.3155 17.9005 45.8395 17.5182L26.7295 1.10225C26.2668 0.703522 25.7287 0.402185 25.1473 0.216131C24.5659 0.0300778 23.9531 -0.0368901 23.3454 0.0192475Z" fill="#797779"/>
</svg>
