<svg width="52" height="66" viewBox="0 0 52 66" fill="none" xmlns="http://www.w3.org/2000/svg">
<path d="M45.4636 42.0619C44.8037 42.0619 44.2686 41.5186 44.2686 40.8486C44.2686 40.1786 44.8037 39.6352 45.4636 39.6352H46.9191V8.16559H46.707C46.0471 8.16559 45.5135 7.62228 45.5135 6.95224C45.5135 6.2822 46.0486 5.74046 46.707 5.74046H48.1141C48.774 5.74046 49.3091 6.28378 49.3091 6.95224V40.847C49.3091 41.517 48.774 42.0604 48.1141 42.0604H45.4636V42.0619ZM7.99516 18.392C7.33528 18.392 6.80175 17.8487 6.80175 17.1786C6.80175 16.5086 7.33684 15.9653 7.99516 15.9653H44.0034C44.6633 15.9653 45.1984 16.5086 45.1984 17.1786C45.1984 17.8487 44.6633 18.392 44.0034 18.392H7.99516ZM34.2611 10.4561V1.74241C34.2611 1.07237 34.7962 0.529053 35.4561 0.529053H42.2375C42.8974 0.529053 43.4325 1.07237 43.4325 1.74241V10.4561C43.4325 11.1261 42.8974 11.6694 42.2375 11.6694H35.4561C34.7962 11.6694 34.2611 11.1261 34.2611 10.4561ZM36.6495 2.95576V9.24431H41.041V2.95576H36.6495ZM8.56613 10.4561V1.74241C8.56613 1.07237 9.10121 0.529053 9.7611 0.529053H16.5425C17.2024 0.529053 17.7359 1.07237 17.7359 1.74241V10.4561C17.7359 11.1261 17.2008 11.6694 16.5425 11.6694H9.7611C9.10121 11.6694 8.56613 11.1261 8.56613 10.4561ZM10.9545 2.95576V9.24431H15.346V2.95576H10.9545ZM24.8028 28.7689C24.8028 28.0988 25.3379 27.5555 25.9977 27.5555C26.6576 27.5555 27.1927 28.0988 27.1927 28.7689V36.5923L33.6434 38.612C34.2721 38.8084 34.6246 39.4848 34.4328 40.1231C34.2393 40.7615 33.5732 41.121 32.9445 40.9246L25.7372 38.6674C25.2021 38.547 24.8043 38.0623 24.8043 37.4841V28.7705L24.8028 28.7689ZM25.9977 49.849C29.3611 49.849 32.4063 48.4645 34.609 46.2279C36.8133 43.9897 38.1768 40.8977 38.1768 37.4826C38.1768 34.0674 36.8133 30.9754 34.609 28.7388C32.4047 26.5006 29.3596 25.1161 25.9977 25.1161C22.6343 25.1161 19.5892 26.5006 17.3849 28.7388C15.1806 30.977 13.8187 34.069 13.8187 37.4826C13.8187 40.8977 15.1822 43.9897 17.3849 46.2279C19.5892 48.4661 22.6343 49.849 25.9977 49.849ZM36.2985 47.9418C33.6621 50.6188 30.0195 52.2741 25.9977 52.2741C21.9745 52.2741 18.3334 50.6188 15.697 47.9418C13.0605 45.2648 11.4303 41.5677 11.4303 37.4826C11.4303 33.399 13.0605 29.7003 15.697 27.0233C18.3334 24.3463 21.9745 22.691 25.9977 22.691C30.021 22.691 33.6621 24.3479 36.2985 27.0233C38.935 29.7003 40.5652 33.399 40.5652 37.4826C40.5652 41.5677 38.9334 45.2648 36.2985 47.9418ZM30.9836 5.74205C31.6434 5.74205 32.177 6.28537 32.177 6.95382C32.177 7.62386 31.6419 8.16718 30.9836 8.16718H21.0104C20.3505 8.16718 19.8154 7.62386 19.8154 6.95382C19.8154 6.28378 20.3505 5.74205 21.0104 5.74205H30.9836ZM5.29009 5.74205C5.94998 5.74205 6.48351 6.28537 6.48351 6.95382C6.48351 7.62386 5.94842 8.16718 5.29009 8.16718H5.07793V39.6368H6.53499C7.19487 39.6368 7.72996 40.1801 7.72996 40.8502C7.72996 41.5202 7.19487 42.0635 6.53499 42.0635H3.88296C3.22307 42.0635 2.68799 41.5202 2.68799 40.8502V6.9554C2.68799 6.28537 3.22307 5.74363 3.88296 5.74363H5.29009V5.74205Z" fill="white"/>
</svg>
