<svg width="1440" height="123" viewBox="0 0 1440 123" fill="none" xmlns="http://www.w3.org/2000/svg">
<path fill-rule="evenodd" clip-rule="evenodd" d="M213.8 123H0V68.3897C9.28638 69.4783 19.0256 71.1906 29.3384 73.0037L29.3406 73.0041C67.1904 79.6586 112.762 87.6707 172 71.193C250.5 40.5 488.9 -13.5926 592.5 4.00009C644.3 12.4726 679.125 19.2873 713.95 26.102C748.775 32.9167 783.6 39.7314 835.4 48.204C895.519 58.4131 955.639 54.7017 1015.76 50.9904C1059.24 48.3062 1102.72 45.622 1146.2 48.204C1249.8 53.9243 1353.4 88.4621 1405.2 105.731L1440 117.333V123H1405.2H1146.2H835.4H524.6H213.8Z" fill="#333237"/>
</svg>
